<svg xmlns="http://www.w3.org/2000/svg" enable-background="new 0 0 3800 3000" viewBox="0 0 3800 3000"><circle cx="671.96" cy="932.74" r="246.31" fill="#f6f6f6"/><path fill="#e2d7de" d="M3303.4,2582.95c-7.23,10.83-940.72,0-940.72,0s-79.98-198.12,112.35-279.7
			c192.33-81.58,255.18,55.94,255.18,55.94s1.9-68.03,70.46-81.8c68.55-13.77,34.28,86.46,34.28,86.46s53.32-90.9,137.11-100.22
			c83.79-9.32,99.02,83.91,55.23,179.47C3027.28,2443.1,3396.71,2443.1,3303.4,2582.95z"/><path fill="#d3c9cf" d="M3021.93,2584.14c-5.43,8.14-706.89,0-706.89,0s-60.1-148.87,84.43-210.17
			c144.52-61.3,191.75,42.03,191.75,42.03s1.43-51.12,52.95-61.46c51.51-10.34,25.76,64.97,25.76,64.97s40.07-68.31,103.03-75.31
			c62.96-7.01,74.41,63.05,41.5,134.86C2814.44,2479.05,3092.04,2479.05,3021.93,2584.14z"/><path fill="#e2d7de" d="M517.06,2584.24c5.28,7.92,687.96,0,687.96,0s58.49-144.89-82.17-204.54
			c-140.66-59.66-186.61,40.91-186.61,40.91s-1.39-49.75-51.53-59.82c-50.13-10.07-25.07,63.23-25.07,63.23
			s-38.99-66.48-100.27-73.3c-61.28-6.82-72.42,61.36-40.39,131.25C718.99,2481.97,448.82,2481.97,517.06,2584.24z"/><path fill="#d3c9cf" d="M722.9,2585.11c3.97,5.95,516.95,0,516.95,0s43.95-108.87-61.74-153.7
			c-105.69-44.83-140.23,30.74-140.23,30.74s-1.05-37.39-38.72-44.95c-37.67-7.56-18.84,47.51-18.84,47.51s-29.3-49.95-75.35-55.08
			c-46.05-5.12-54.42,46.11-30.35,98.62C874.64,2508.26,671.63,2508.26,722.9,2585.11z"/><path fill="#f6f6f6" d="M3041.25,1330.89c-61.56,263.02-236.37,440.38-449.12,530.65c-78.99,33.64-163.06,55.6-251.94,67.51
		c-153.61,20.69-321.44,11.48-501.78-18.74c-111.51-19.58-220.69-44-325.21-71.92c-160.92-43.05-310.79-94.4-441.01-149.28
		c-213.46-93.84-373.46-197.26-408.97-368.06c-34.71-166.6,62.75-386.77,277.95-596.33c213.06-206.31,543.87-402.02,926.63-445.3
		c381.33-48.61,726,75.81,937.43,286.93C3020.28,775.86,3102.01,1072.08,3041.25,1330.89z"/><path fill="#33232a" d="M2657.48,818.84c0,0-62.65-30.63-106.04,27.43c-36.58,48.96,41.84,170.7,21.86,213.32
			c-19.98,42.62-27.97,11.99-53.27,38.62c-25.31,26.64,0,109.21,106.55,77.25c106.55-31.96,47.95-22.64,127.86-17.31
			c79.91,5.33,53.27-88.31,53.27-88.31s25.84-26.23,4.26-67.52c-21.58-41.29-86.84-30.63-72.19-85.24
			C2754.44,862.47,2708.25,794.87,2657.48,818.84z"/><path fill="#3fc9bc" d="M2646.01,1074.04c107.66,5.66,269.09,592.23-235.78,996.67c-222.05,177.88-119.72-675.5-119.72-675.5
				S2421.21,1062.21,2646.01,1074.04z"/><path fill="#ffbf9f" d="M2654.45,1005.37l11.32,93.19c0,0-45.12,26.31-80.29,6.1l16.14-98.29L2654.45,1005.37z"/><path fill="#efac8f" d="M2604.36,1060.45c3.97,2.83,1.35-9.98,5.18-13.51c3.02-2.78,7.04-3.44,11.01-3.18
				c4.4,0.29,8.64,1.67,13.06,1.68c3.93,0.01,7.84-0.71,11.38-2.47c5.48-2.72,9.42-7.49,12.49-12.71l-3.02-24.9l-52.84,1.01
				C2601.62,1006.38,2590.5,1050.58,2604.36,1060.45z"/><path fill="#ffbf9f" d="M2708.09,960.86c-1.59-17.52-23.77-10.74-23.77-10.74s22.51-18.19,9.92-56.49
				c-12.59-38.3-117.76-58.89-137.14-7.78c-8.87,23.39-22.68,107.89,21.34,136.56c44.01,28.67,52.46,11.95,76.45-2.82
				c20.63-12.71,22.4-28.04,22.4-28.04S2710.84,991.22,2708.09,960.86z"/><path fill="#33232a" d="M2538.57 905.08c0 0 6.64 1.5 15.73 2.53 2.59.29 5.73-24.67 22.54-28.17-14.2 11.1-9.71 29.11-7.39 29.12 12.18.07 24.82-1.82 31.36-8.74 0 0 45.86 20.13 64.96 9.58-8.66 35.29-2.72 54.04 8.26 54.96 10.98.92 29.52-31.44 29.52-31.44s29.39-81.34-58.12-110.76C2557.91 792.74 2518.91 853.43 2538.57 905.08zM2698.36 968.98c.45 0 .87-.27 1.04-.71 3.82-9.76-5.95-15.54-6.05-15.59-.54-.32-1.22-.12-1.53.41-.31.53-.13 1.22.41 1.53.34.2 8.2 4.89 5.09 12.84-.23.58.06 1.23.63 1.45C2698.09 968.95 2698.23 968.98 2698.36 968.98z"/><path fill="#efac8f" d="M2657.37 972.57c.7 4.15-3.82 8.37-10.09 9.42-6.27 1.06-11.93-1.45-12.62-5.59-.7-4.14 3.82-8.36 10.09-9.42C2651.02 965.92 2656.67 968.43 2657.37 972.57zM2622.55 1011.21c.7 4.15-3.82 8.37-10.09 9.42-6.27 1.06-11.93-1.45-12.62-5.59-.7-4.15 3.82-8.36 10.09-9.42C2616.2 1004.56 2621.85 1007.06 2622.55 1011.21zM2585.95 976.27c.7 4.15-3.82 8.37-10.09 9.42-6.27 1.06-11.93-1.45-12.62-5.59-.7-4.14 3.82-8.36 10.09-9.42C2579.6 969.62 2585.25 972.13 2585.95 976.27z"/><path fill="#33232a" d="M2603.37,978.19c-0.61,0-1.2-0.09-1.79-0.25c-3.72-1.08-5.29-5.27-5.35-5.44c-0.19-0.52-0.12-1.1,0.18-1.56
				c6.29-9.66,4.62-22.7,4.6-22.83c-0.13-0.96,0.54-1.84,1.5-1.97c0.99-0.14,1.84,0.54,1.97,1.5c0.08,0.57,1.77,13.77-4.62,24.38
				c0.5,0.92,1.44,2.2,2.71,2.56c1.18,0.33,2.63-0.13,4.29-1.4c0.77-0.59,1.87-0.44,2.46,0.33c0.59,0.77,0.44,1.87-0.33,2.46
				C2607.04,977.44,2605.16,978.19,2603.37,978.19z"/><path fill="#eaefee" d="M2583.48,1001.03c0,0,20,9.06,42.41-1.36C2630.97,1008.98,2604.42,1033.22,2583.48,1001.03z"/><path fill="#33232a" d="M2626.77 942.63c0 5.48 3.01 9.89 6.75 9.89 3.74 0 6.75-4.42 6.75-9.89 0-5.43-3.01-9.89-6.75-9.89-1.66 0-3.18.85-4.37 2.34 1.32.34 2.25 1.49 2.25 2.85 0 1.66-1.32 2.97-2.97 2.97-.55 0-1.06-.13-1.49-.42C2626.82 941.14 2626.77 941.91 2626.77 942.63zM2615.28 926.12c0 0 29.85-1.5 32.86-4.44 3-2.94-6.34-9.14-19.5-5.81C2615.48 919.19 2611.87 926.02 2615.28 926.12zM2569.98 942.63c0 5.48 3.01 9.89 6.75 9.89 3.74 0 6.75-4.42 6.75-9.89 0-5.43-3.01-9.89-6.75-9.89-1.66 0-3.18.85-4.37 2.34 1.32.34 2.25 1.49 2.25 2.85 0 1.66-1.32 2.97-2.97 2.97-.55 0-1.06-.13-1.49-.42C2570.02 941.14 2569.98 941.91 2569.98 942.63zM2558.49 926.12c0 0 29.85-1.5 32.86-4.44 3-2.94-6.34-9.14-19.5-5.81C2558.68 919.19 2555.07 926.02 2558.49 926.12z"/><g><path fill="#00a99d" d="M1026.64,1212.13c20.23-31.01,137.32,28.35,121.22,191.79c-9.26,93.96-80.56,170.01-130.64,183.15
				c-47.13,12.37-72.46-33.93-102.83-81.71C881.32,1453.34,970.23,1298.6,1026.64,1212.13z"/><path fill="#f4af90" d="M932.72,1650.12c0,0,103.35-54.53,97.47-100.69c-5.88-46.16-70.78-111.71-114.58-85.95
				C871.81,1489.24,896.66,1605.29,932.72,1650.12z"/><path fill="#ffbf9f" d="M714.65,1284.46c0,0,121.23,394.81,198.2,373.46c180.17-49.97-159.47-404.21-159.47-404.21L714.65,1284.46z
					"/><path fill="#ffbf9f" d="M667.49,1230.83c0.85,1.6,1.76,2.96,2.57,3.96c0.17,0.21,0.32,0.39,0.47,0.55
							c3.72,4.12,7.64,8.04,11.39,11.54c10.05,9.45,18.85,16.04,18.85,16.04s42.43,87.39,49.55,95.09
							c10.12,5.02,33.69-32.34,33.69-32.34c2.8-9.44-35.39-80.63-39.89-95.84c-4.52-15.22,18.02-55.57,3.98-56.82
							c-7.89,6.82-19.88,26.64-19.88,26.64s-29-76.53-46.28-69.94c-7.69,2.93,9.74,40.54,14.74,55.61c0.04,0.13,0.09,0.24,0.12,0.37
							c-0.03-0.03-6.89-2.37-11.11,2.74c-2.07,2.49-2.13,4.69-2.13,4.69s-4.32-0.01-6.79,1.84c-2.49,1.86-5.24,6.03-4.67,7.4
							c-0.05,0.02-3.87-0.19-6.06,3.03c-2.19,3.21-1.13,8.96-1.13,8.96l0.03-0.02c-0.18,0.69-0.35,1.37-0.45,2.05
							C663.72,1221.58,665.44,1226.94,667.49,1230.83z"/><path fill="#fff" d="M667.49 1230.83c.3-.74.73-1.42 1.36-1.97 2.81-2.43 5.93-.38 7.99 1.6 1.2 1.15 2.24 2.57 3.58 3.58 1.15.89 2.78 1.37 4.23 1.64 12.34 2.47 30.38-9.99 25.79-23.14-1.88-5.39-4.33-10.81-6.95-15.83-2.19-4.2-3.71-7.4-6.68-11.03-.03-.03-6.89-2.37-11.11 2.74-2.07 2.49-2.13 4.69-2.13 4.69s-4.32-.01-6.79 1.84c-2.49 1.86-5.24 6.03-4.67 7.4-.05.02-3.87-.19-6.06 3.03-2.19 3.21-1.13 8.96-1.13 8.96l.03-.02c-.18.69-.35 1.37-.45 2.05C663.72 1221.58 665.44 1226.94 667.49 1230.83zM750.49 1186.1c0 0-1.63.54-2.07-1.7-.43-2.24 2.65-8.57 2.65-8.57S754.1 1179.25 750.49 1186.1z" opacity=".2"/><path fill="#231f20" d="M674.85,1228.23c7.78,12.15,16.04,12.42,19.48,11.89c7.78-5.17,14.46-11.42,16.91-16.33
						c1.71-3.42,0.5-9.39-1.94-15.76c0.2,0.33,0.4,0.65,0.59,0.98c3.19,5.5,6.54,11.98,5.91,18.55
						c-0.62,6.48-5.55,11.12-11.32,13.48c-4.63,1.89-9.7,2.61-14.75,2.73l-0.01,0.01c-0.01,0-0.02,0-0.03,0
						c-0.47,0.01-0.94,0.02-1.41,0.03c0.11-0.06,0.21-0.12,0.32-0.18C680.13,1242.1,674.85,1228.23,674.85,1228.23z" opacity=".1"/><path fill="#e8ad80" d="M693.96,1238.54c-3.17-3.31-5.41-6.15-8-9.87c-2.61-3.82-4.94-7.9-6.25-12.34
						c1.61,4.33,4.19,8.18,7.02,11.76c2.86,3.56,9.15,9.72,9.15,9.72c1.46-0.56,5.66-4.11,7.39-5.73c0.09-0.08,0.17-0.16,0.25-0.24
						c-2.93-3.63-5.71-7.34-8.31-11.18c-2.62-3.9-5.13-7.92-6.91-12.26c2.07,4.21,4.83,8.01,7.69,11.7
						c2.82,3.6,5.82,7.09,8.91,10.43c1.15-1.13,2.28-2.27,3.24-3.53c2.66-3.47,3.55-5.86,2.26-12.8c-0.43-2.33-1.18-4.61-1.95-6.87
						c-0.72-2.29-1.6-4.52-2.47-6.78c2.47,4.15,4.48,8.59,5.85,13.29c0.67,2.36,1.16,4.81,0.99,7.4c-0.09,0.65-0.1,1.31-0.36,1.94
						l-0.31,0.96l-0.43,0.87c-0.27,0.6-0.61,1.13-0.97,1.65c-0.34,0.54-0.71,1.05-1.11,1.52c-3.15,3.86-6.96,6.94-10.94,9.72
						c-3.98,2.76-8.36,4.09-14.26,0.14C688.11,1240.14,693.13,1239.15,693.96,1238.54z"/><path fill="#231f20" d="M700.92,1262.01c7.22,2.39,18.57-2.45,28.47-7.93c7.52-4.16,12.21-11.25,15.05-17.61
						c-0.07,1.57-0.19,3.15-0.44,4.74c-0.63,4.13-2.45,22.18-12.68,26.69c-15.99,7.05-26.29-4.88-30.07-5.27
						C701.14,1262.43,701.03,1262.22,700.92,1262.01z" opacity=".1"/><path fill="#3fc9bc" d="M1281.63,1928.42c0,0-264.37-384.09-264.41-658.29c-0.01-73.32,30.73-90.5,76.31-148.08
				c117.29-148.16,333.28,165.67,333.28,165.67L1281.63,1928.42z"/><path fill="#00a99d" d="M1059.51,1170.43c8.13,12.33,37.23,7.49,65.01-10.82c27.78-18.31,43.7-43.14,35.57-55.47
				c-8.13-12.33-37.23-7.49-65.01,10.82C1067.31,1133.26,1051.38,1158.1,1059.51,1170.43z"/><g><path fill="#ffbf9f" d="M1073.19,1156.67c0,0,19.7,3.55,41.41-10.76c21.72-14.31,27.96-34.02,27.96-34.02s-17.17-19.26-29.85-33.51
					c-7.64-8.67-13.9-15.76-14.88-16.94l-54.38,35.84l13.12,26.23L1073.19,1156.67z"/><path fill="#efac8f" d="M1056.58,1123.51c14.52,3.1,28.72,2.4,36.95-3.03c9.99-6.58,17.15-23.88,19.18-42.1
					c-7.64-8.67-13.9-15.76-14.88-16.94l-54.38,35.84L1056.58,1123.51z"/></g><g><path fill="#33232a" d="M942.97,956.21c0,0-24.21-10.02-16.2-43.57c0,0-21.83-16.7-7.51-47.99
							c14.31-31.29,46.81-15.04,46.81-15.04s44.51-77.02,134.28-28.88c32.46,17.4,0,31.89,0,31.89s39.17,1.2,38.55,48.14
							c-0.47,35.78-16.83,40.47-16.83,40.47s3.13,36.01-15.19,43.87C1088.54,992.95,939.83,1060.93,942.97,956.21z"/><path fill="#ffbf9f" d="M1144.43,971.77c-7.34-14.31-20.67-10.22-28.22-6.31c-0.33-30.65-3.96-54.04-3.96-54.04
							c-0.26-1.65-0.78-3.2-1.56-4.68c-15.24-27.54-126.61-28.58-149.21-3.2c-2.17,2.34-3.46,5.02-3.9,7.88c0,0-3.4,23.5-3.48,54.27
							c-7.47-3.97-21.17-8.52-28.65,6.08c-10.44,20.37,13.03,50.68,32.86,49.85c7.69,44.99,27.94,86.65,76.6,86.65
							c49.6,0,69.94-41.64,77.43-86.62C1132,1021.69,1154.74,991.88,1144.43,971.77z"/><path fill="#efac8f" d="M990.73,913.73c81.91,38.81,121.46,5.02,122.46,4.8c-0.54-4.51-0.94-7.09-0.94-7.09
							c-0.26-1.65-0.78-3.2-1.56-4.68c-15.24-27.54-126.61-28.58-149.21-3.2c-2.17,2.34-3.46,5.02-3.9,7.88c0,0-1.03,8.6-1.79,16.6
							C962.87,929.22,981,927.47,990.73,913.73z"/><path fill="#33232a" d="M1019.23,1052.34c8.06-2.14,12.11,3.77,20.17,3.68c8.06,0.08,14.87-6.3,22.93-4.15
							c-8.06,2.15-14.87,9.49-22.93,9.57C1031.33,1061.35,1027.29,1054.48,1019.23,1052.34z"/><path fill="#efac8f" d="M1034.45,1091.23c-8.57,0-13.58-4.99-13.65-5.06c-0.78-0.81-0.77-2.09,0.04-2.88
							c0.8-0.78,2.09-0.77,2.87,0.03l0,0c0.36,0.36,8.99,8.74,23.59-0.3c0.96-0.59,2.21-0.3,2.8,0.66c0.59,0.95,0.3,2.21-0.66,2.8
							C1043.7,1090.03,1038.65,1091.23,1034.45,1091.23z"/><path fill="#33232a" d="M983.32 898.35c0 0 65.81 34.03 133.99 20.33 68.18-13.71-97.59-73.58-137.6-53.72-40.01 19.86-33.4 65.89-33.4 65.89S979.11 924.99 983.32 898.35zM1031.13 1019.31c-2.7-6.11 1.27-13.05 1.45-13.34.8-1.36 2.54-1.82 3.9-1.03 1.37.79 1.83 2.53 1.04 3.9-.78 1.35-2.38 5.43-1.09 8.31 1.01 2.08 3.62 3.43 7.76 4.04 1.56.23 2.65 1.67 2.41 3.24-.23 1.56-1.68 2.64-3.24 2.42-6.14-.89-10.21-3.33-12.09-7.23C1031.23 1019.51 1031.18 1019.41 1031.13 1019.31zM1084.65 982.4c0 5-3.43 9.03-7.65 9.03s-7.65-4.04-7.65-9.03c0-4.99 3.43-9.05 7.65-9.05 1.18 0 2.3.31 3.3.91-1.49.45-2.61 2.05-2.61 3.97 0 2.25 1.56 4.1 3.48 4.1 1.4 0 2.63-1 3.17-2.43C1084.54 980.71 1084.65 981.53 1084.65 982.4zM1006.03 981.25c0 5-3.43 9.03-7.65 9.03-4.21 0-7.65-4.04-7.65-9.03 0-4.99 3.43-9.05 7.65-9.05 1.18 0 2.3.31 3.3.91-1.49.45-2.61 2.05-2.61 3.97 0 2.25 1.56 4.1 3.48 4.1 1.41 0 2.63-1 3.17-2.43C1005.92 979.56 1006.03 980.38 1006.03 981.25zM1138.34 989.49c.55 0 1.08-.33 1.3-.88 4.75-12.14-7.4-19.33-7.53-19.4-.67-.39-1.51-.15-1.9.51-.38.66-.16 1.51.51 1.9.42.24 10.2 6.08 6.33 15.97-.28.72.07 1.52.79 1.8C1138 989.46 1138.18 989.49 1138.34 989.49zM929.76 989.61c-.55 0-1.08-.33-1.3-.88-4.75-12.14 7.4-19.32 7.53-19.4.67-.39 1.51-.15 1.9.51.38.66.16 1.51-.51 1.9-.42.24-10.2 6.08-6.33 15.97.28.72-.07 1.52-.79 1.8C930.1 989.58 929.93 989.61 929.76 989.61zM1016.04 964.13c0 0-29.08-1.46-32.01-4.33-2.93-2.86 6.17-8.9 18.99-5.66C1015.85 957.38 1019.37 964.03 1016.04 964.13zM1061.32 964.13c0 0 29.08-1.46 32.01-4.33 2.93-2.86-6.17-8.9-18.99-5.66C1061.51 957.38 1057.99 964.03 1061.32 964.13z"/></g><path fill="#efac8f" d="M1093.29 1027.09c.83 4.94-4.55 9.96-12.02 11.22-7.47 1.26-14.2-1.72-15.03-6.66-.83-4.93 4.54-9.96 12.02-11.22C1085.72 1019.17 1092.45 1022.16 1093.29 1027.09zM981.83 1027.09c-.83 4.94 4.55 9.96 12.02 11.22 7.47 1.26 14.2-1.72 15.03-6.66.83-4.93-4.54-9.96-12.02-11.22C989.4 1019.17 982.67 1022.16 981.83 1027.09z"/></g><g><path fill="#d3c9cf" d="M2377.95,2337.71c0,0,389.8,56.6,438.78-482.43C2816.73,1855.28,2295.54,1877.02,2377.95,2337.71z"/><path fill="#eaefee" d="M2810.58,1860.34l-116.2,110.81c-38.51,37.08-76.93,74.2-114.36,112.24
						c-18.82,18.91-37.43,38.04-55.59,57.55c-18.32,19.36-36.18,39.15-53.55,59.32c-17.24,20.27-34.1,40.88-49.38,62.62
						c-15.38,21.61-29.4,44.48-37.16,70.19c2.33-13.16,6.2-26.3,12.04-38.46c5.41-12.38,11.91-24.24,18.75-35.88
						c13.99-23.08,29.79-44.98,46.41-66.15c33.27-42.35,69.86-81.8,107.47-120.08c37.88-38.04,76.92-74.85,117.22-110.22
						C2726.4,1926.78,2767.81,1892.68,2810.58,1860.34z" opacity=".52"/><path fill="#eaefee" d="M2740.53,2205.6c8.07-18.96-57.26-9.44-74.58-6.61c15.26-14.53,30.33-28.57,44.67-41.47
			c1.49,0.58,61.58,23.75,67.58,5.08c5.96-18.55-64.88-5.62-67.53-5.13c12.02-10.81,23.51-20.81,34.15-29.63
			c7.43,3.2,65.98,27.84,67.8,8.94c1.77-18.48-57.25-10.89-67.14-9.49c2.41-1.99,4.77-3.92,7.08-5.78
			c-0.02,0.51-0.03,0.79-0.03,0.79s0.2-0.45,0.54-1.19c10.47-8.41,19.94-15.44,28.04-20.68c16.36-4.31,81.64-23.28,76.28-49.91
			c-4.99-24.78-54.86,24.5-73.21,43.66l-0.04-0.08c-7.89,4.73-17.34,11.51-27.92,19.8c8.49-19.7,27.75-67.08,14.97-63.77
			c-13.25,3.42-17.33,50.02-18.36,66.46c-11.56,9.22-24.36,20.14-37.92,32.2c8.82-18.19,26.98-59.17,15.05-65.83
			c-13.09-7.31-17.95,51.57-19.12,69.46c-15.18,13.61-31.22,28.52-47.46,43.99c7.37-15.22,36.91-78.7,20.29-86.06
			c-17.39-7.7-21.33,74.42-21.84,87.54c-14.11,13.46-28.32,27.3-42.23,41.01c11.81-27.44,41.03-99.7,22.83-103.16
			c-19.36-3.69-25.71,83.19-27.11,107.39c-19.18,18.97-37.69,37.6-54.29,54.51c4.15-11.51,47.68-133.44,30.82-134.88
			c-17-1.46-30.11,125.3-31.1,135.16c-20.64,21.02-38.32,39.36-50.81,52.39c4.17-14.37,38.07-133.38,17.3-138.52
			c-21.09-5.21-18.07,126.94-17.75,138.98c-11.69,12.21-18.71,19.65-19.1,20.06l2.37,2.77c0.4-0.43,8.15-8.64,20.95-22
			c7.53,1.07,75.66,10.05,85.15-12.79c9.37-22.56-73.4,7.99-84.59,12.21c12.62-13.16,30.04-31.2,50.16-51.68
			c16.58,3.21,82.61,14.59,84.73-7.45c2.02-21.04-60.87-2.33-81.79,4.46c14.77-15.02,30.94-31.28,47.65-47.84
			c-0.02,0.5-0.04,0.84-0.04,0.84s0.24-0.53,0.65-1.45c1.02-1.01,2.01-2,3.03-3.01c8.32,2.17,72.32,18.2,73.16-0.95
			c0.83-18.74-61.77-2.61-72.48,0.28c14.74-14.56,29.87-29.29,44.85-43.58C2676.55,2205.28,2732.28,2225,2740.53,2205.6z"/><g><path fill="#e2d7de" d="M2412.09,2387.79c-14.64-16.1-29.62-31.79-44.93-47.06c0.98-19.09,1.65-37.82,2.04-56.18
					c0.27-0.32,25.8-75.59,51.03-90.33c25.67-15.26,49.33,18.24,70.06,19.16c21.12,0.44,20.64-35.71,36.25-36.95
					c15.98-1.68,30.17,38.18,46.58,37.88c16.87-0.79,5.23-34.36,38.71-35.4c33.81-1.3,22.29,25.93,42.44,40.66
					c18.69,16.05,135.24-52.09,130.83,6.45c-6.87,60.55-97.57,42.76-104.21,52.73c-6.97,10.06,11.65,34.57-11.03,53.16
					c-22.39,18.22-70.63-17.94-76.81-8.88c-5.97,8.76,3.17,26.92-9.95,44.04c-12.99,16.94-62.96-17.49-72.64-4.98
					c-4.54,5.84-4.6,8.08-5.9,11.3c-0.34,0.85-0.77,1.77-1.39,2.83c-1.99,3.45-6.01,8.53-15.47,17.9
					C2464.2,2417.43,2412.19,2387.66,2412.09,2387.79z"/><path fill="#eaefee" d="M2576.98,2268.06c19.01-26.3,38.22-52.79,57.62-79.49c-21.09,27.27-41.9,54.25-62.44,80.95
				c-8.75,2.66-17.58,5.36-26.67,8.17c-21.67,6.69-42.29,13.16-60.97,18.98c-0.41,0.13-0.82,0.25-1.23,0.38
				c-1.69,0.54-3.32,1.04-4.98,1.56c6.08-14.37,52.45-108.65,52.36-108.54c-11.44,8.75-32.97,56.16-45.88,85.8
				c-5.56,12.8-9.45,22.23-9.95,23.42c0.15,0.09,0.3,0.17,0.45,0.25c-23.68,7.38-43.67,13.56-58.28,18.06
				c0.5-10.6,2.49-63.17,14.27-94.77c3.86-10.2,13.83-25.58,13.84-25.6c-6.77,4.69-11.89,12.63-15.83,22.36
				c-13.41,33.59-14.65,91.65-15.07,98.86c-14.49,4.46-22.94,7.04-23.21,7.15c0.35,0.99,0.69,1.98,1.03,2.97
				c0.56-0.19,11.59-3.56,29.86-9.17c27.52,18.33,54.62,37.27,81.29,56.81c1.03-1.63-77.39-58.42-77.79-57.88
				c15.51-4.75,35.64-10.99,59-18.26c32.85,20.54,65.16,41.92,96.9,64.14c-30.44-22.65-61.5-44.42-93.16-65.31
				c25.44-7.91,54.45-16.96,84.75-26.17c33.58,17.25,66.84,35.18,99.73,53.79c-31.39-19.08-63.19-37.46-95.38-55.11
				c77.68-23.13,207.62-46.82,208.23-47.11C2750.56,2219.28,2676.3,2237.69,2576.98,2268.06z"/></g></g><g><path fill="#d3c9cf" d="M1300.05,2400.48c0,0,56.61-389.8-482.43-438.78C817.62,1961.7,839.36,2482.89,1300.05,2400.48z"/><path fill="#eaefee" d="M822.68,1967.85l110.81,116.2c37.08,38.51,74.2,76.93,112.24,114.36c18.91,18.82,38.04,37.43,57.55,55.58
						c19.36,18.32,39.15,36.18,59.32,53.55c20.27,17.24,40.88,34.1,62.62,49.38c21.61,15.38,44.48,29.4,70.19,37.16
						c-13.16-2.33-26.3-6.2-38.46-12.04c-12.38-5.41-24.24-11.91-35.88-18.75c-23.08-13.99-44.98-29.79-66.15-46.41
						c-42.35-33.27-81.8-69.86-120.08-107.47c-38.04-37.88-74.85-76.92-110.22-117.22C889.12,2052.03,855.02,2010.62,822.68,1967.85
						z" opacity=".52"/><path fill="#eaefee" d="M1167.94,2037.9c-18.95-8.07-9.44,57.26-6.61,74.57c-14.53-15.26-28.57-30.33-41.47-44.67
			c0.58-1.49,23.76-61.58,5.08-67.58c-18.55-5.96-5.62,64.88-5.13,67.53c-10.81-12.02-20.81-23.51-29.63-34.15
			c3.2-7.43,27.84-65.98,8.94-67.8c-18.48-1.77-10.89,57.25-9.49,67.14c-1.99-2.41-3.92-4.77-5.78-7.08
			c0.51,0.02,0.79,0.03,0.79,0.03s-0.45-0.2-1.19-0.54c-8.41-10.47-15.44-19.94-20.68-28.04c-4.31-16.36-23.28-81.64-49.91-76.28
			c-24.78,4.99,24.5,54.86,43.66,73.21l-0.08,0.03c4.73,7.89,11.51,17.34,19.8,27.92c-19.7-8.49-67.08-27.75-63.77-14.97
			c3.42,13.25,50.02,17.33,66.46,18.36c9.22,11.56,20.14,24.36,32.2,37.92c-18.19-8.82-59.17-26.98-65.83-15.05
			c-7.31,13.09,51.57,17.95,69.46,19.12c13.61,15.18,28.52,31.22,43.99,47.46c-15.22-7.37-78.7-36.91-86.06-20.29
			c-7.7,17.39,74.42,21.33,87.54,21.84c13.46,14.11,27.3,28.32,41.01,42.23c-27.44-11.81-99.7-41.03-103.16-22.83
			c-3.69,19.36,83.19,25.72,107.39,27.11c18.97,19.18,37.6,37.69,54.51,54.29c-11.51-4.15-133.44-47.68-134.88-30.82
			c-1.46,17,125.3,30.11,135.16,31.1c21.02,20.64,39.36,38.33,52.39,50.81c-14.37-4.17-133.38-38.07-138.52-17.3
			c-5.21,21.09,126.94,18.07,138.98,17.75c12.21,11.69,19.65,18.71,20.06,19.1l2.77-2.37c-0.43-0.4-8.64-8.15-22-20.95
			c1.07-7.53,10.05-75.66-12.79-85.15c-22.56-9.37,7.99,73.4,12.21,84.59c-13.16-12.62-31.2-30.04-51.68-50.16
			c3.21-16.58,14.59-82.61-7.45-84.72c-21.04-2.02-2.33,60.87,4.46,81.79c-15.02-14.77-31.28-30.94-47.84-47.65
			c0.5,0.02,0.84,0.04,0.84,0.04s-0.53-0.24-1.45-0.66c-1.01-1.02-2-2.01-3.01-3.03c2.17-8.32,18.2-72.32-0.95-73.16
			c-18.74-0.83-2.61,61.77,0.28,72.48c-14.56-14.74-29.29-29.86-43.58-44.85C1167.62,2101.88,1187.34,2046.15,1167.94,2037.9z"/><g><path fill="#e2d7de" d="M1350.13,2366.34c-16.1,14.64-31.79,29.62-47.06,44.93c-19.09-0.98-37.82-1.65-56.18-2.04
					c-0.32-0.26-75.59-25.8-90.33-51.03c-15.26-25.67,18.24-49.33,19.16-70.06c0.44-21.12-35.71-20.64-36.95-36.25
					c-1.68-15.98,38.18-30.17,37.88-46.58c-0.79-16.87-34.36-5.23-35.4-38.71c-1.3-33.81,25.93-22.29,40.66-42.44
					c16.05-18.69-52.09-135.24,6.45-130.83c60.55,6.87,42.76,97.57,52.72,104.2c10.06,6.97,34.57-11.65,53.16,11.03
					c18.22,22.39-17.94,70.63-8.88,76.81c8.76,5.97,26.92-3.17,44.04,9.95c16.94,12.99-17.49,62.96-4.98,72.64
					c5.84,4.54,8.08,4.6,11.3,5.9c0.85,0.34,1.77,0.77,2.83,1.39c3.45,1.99,8.53,6.01,17.9,15.47
					C1379.77,2314.23,1350,2366.24,1350.13,2366.34z"/><path fill="#eaefee" d="M1230.41,2201.45c-26.3-19.01-52.79-38.22-79.49-57.62c27.27,21.09,54.25,41.9,80.95,62.44
				c2.66,8.75,5.36,17.58,8.17,26.67c6.69,21.67,13.16,42.29,18.98,60.97c0.13,0.41,0.25,0.82,0.38,1.23
				c0.54,1.69,1.04,3.32,1.56,4.98c-14.37-6.08-108.65-52.45-108.54-52.36c8.75,11.44,56.16,32.97,85.8,45.88
				c12.8,5.56,22.23,9.45,23.42,9.95c0.09-0.16,0.17-0.3,0.25-0.45c7.38,23.68,13.56,43.67,18.06,58.28
				c-10.6-0.5-63.17-2.49-94.77-14.27c-10.2-3.86-25.58-13.83-25.6-13.84c4.69,6.77,12.63,11.89,22.36,15.83
				c33.59,13.41,91.65,14.65,98.86,15.07c4.46,14.49,7.04,22.94,7.15,23.22c0.99-0.35,1.98-0.69,2.97-1.03
				c-0.19-0.56-3.56-11.59-9.17-29.86c18.33-27.52,37.27-54.62,56.81-81.29c-1.63-1.03-58.42,77.39-57.88,77.79
				c-4.75-15.51-10.99-35.64-18.26-59c20.54-32.85,41.92-65.16,64.14-96.9c-22.65,30.44-44.42,61.5-65.31,93.16
				c-7.91-25.44-16.96-54.45-26.17-84.75c17.25-33.58,35.18-66.84,53.79-99.73c-19.08,31.39-37.46,63.19-55.11,95.38
				c-23.13-77.68-46.82-207.62-47.11-208.23C1181.62,2027.87,1200.03,2102.14,1230.41,2201.45z"/></g></g><g><rect width="160.15" height="64.06" x="853.77" y="537.01" fill="#eaefee" opacity=".55" transform="rotate(180 933.84 569.04)"/><rect width="160.15" height="64.06" x="767.87" y="473.09" fill="#eaefee" opacity=".31" transform="rotate(180 847.945 505.12)"/><rect width="160.15" height="64.06" x="692.68" y="408.71" fill="#eaefee" opacity=".5" transform="rotate(180 772.75 440.74)"/><rect width="160.15" height="64.06" x="853.56" y="408.89" fill="#eaefee" opacity=".35" transform="rotate(180 933.635 440.923)"/></g><g><rect width="160.15" height="64.06" x="2997.22" y="1759.1" fill="#eaefee" opacity=".55" transform="translate(-2.872 4.944)"/><rect width="160.15" height="64.06" x="3083.11" y="1823.02" fill="#eaefee" opacity=".31" transform="translate(-2.98 5.09)"/><rect width="160.15" height="64.06" x="3158.31" y="1887.4" fill="#eaefee" opacity=".5" transform="translate(-3.071 5.19)"/><rect width="160.15" height="64.06" x="2997.42" y="1887.21" fill="#eaefee" opacity=".35" transform="translate(-3.076 4.941)"/></g><g><path fill="#efac8f" d="M2524.68,1190.47c0,0-8.85,2.14-12.1,14.76c-3.25,12.62-3.02,32.43-9.53,34.36
			c-6.51,1.93-20.17-38.72-18.68-56.27C2485.87,1165.77,2516.62,1184.35,2524.68,1190.47z"/><path fill="#f4af90" d="M1220.22,1013.23c0,0,19.71,48.43,32.79,47.13c13.08-1.31-4.9-47.13-4.9-47.13H1220.22z"/><path fill="#efac07" d="M1243.54,2558.37V537.41c0-17.96,14.56-32.52,32.52-32.52h1188.82c17.96,0,32.52,14.56,32.52,32.52v2020.96
			c0,17.96-14.56,32.52-32.52,32.52H1276.05C1258.1,2590.88,1243.54,2576.32,1243.54,2558.37z"/><path fill="#ffbf9f" d="M2524.68,1190.47c0,0-73.79,3.28-76.36-13.95c-1.2-8.05,2.16-11.7,26.68-13.51
						c-30.05,1.12-29.93-3.31-27.11-12.32c2.17-6.93,4.94-7.4,29.25-10.17c-16.84,0.38-25.99-1.29-27.02-8.57
						c-1.3-9.27,5.61-12.67,28.9-13.05c-13.88-0.72-22.23-2.06-22.15-8.79c0.07-5.95,4.93-11.41,20.02-12.31
						c17.07-1.02,16.51-3.48,24.3-2.05c6.01,1.1,12.36,1.58,16.77,4.85C2539.2,1116.35,2537.55,1183.74,2524.68,1190.47z"/><path fill="#efac8f" d="M2493.45 1161.74c-11.98-.44-27.32 1.09-28.08 1.16-.51.05-.88.5-.83 1.01.05.51.5.88 1.01.83.22-.02 22.11-2.21 33.89-.69.53.07.97-.29 1.03-.8.06-.51-.29-.97-.8-1.03C2497.8 1161.97 2495.68 1161.82 2493.45 1161.74zM2490.57 1139.6c-10.65-.39-21.95.37-22.09.38-.51.03-.89.48-.86.98.03.51.46.89.98.86.18-.01 18.54-1.25 30.34.27.52.06.97-.29 1.03-.8.06-.51-.29-.97-.8-1.03C2496.54 1139.91 2493.58 1139.71 2490.57 1139.6zM2490.22 1117.64c-10.3-.38-20.81.41-20.94.42-.51.04-.89.48-.85.99.04.51.49.9.99.85.17-.01 17.23-1.29 29.01.22.51.06.97-.29 1.03-.8.06-.51-.29-.97-.8-1.03C2496.03 1117.95 2493.13 1117.75 2490.22 1117.64zM2520.15 1112.68c-.19-.01-.38.04-.55.16-.42.28-.54.86-.25 1.28 11.55 17.19 3.72 31.78 3.64 31.93-.12.23-.15.49-.07.74 4.93 14.75-3.69 26.73-3.78 26.85-.3.41-.21.99.2 1.29.41.3.99.21 1.29-.2.38-.51 9.15-12.66 4.17-28.17 1.19-2.48 7.22-16.92-3.91-33.48C2520.72 1112.83 2520.44 1112.69 2520.15 1112.68z"/><path fill="#f9c300" d="M2418.83,2534.83H1322.1c-12.44,0-22.52-10.08-22.52-22.52V583.46c0-12.44,10.08-22.52,22.52-22.52h1096.73
			c12.44,0,22.52,10.08,22.52,22.52v1928.86C2441.35,2524.75,2431.26,2534.83,2418.83,2534.83z"/></g><g><polygon fill="#efac07" points="2108.21 2643.28 2074.15 2637.09 2152.27 2207.46 2200.28 2216.19"/><polygon fill="#efac07" points="2471.55 2643.28 2505.62 2637.09 2427.49 2207.46 2379.48 2216.19"/><path fill="#33232a" d="M2425.57 2358.26c.41-7.14-2.42-13.8-4.96-20.3-2.6-6.64-4.77-13.29-4.98-20.47-.35-11.84 1.1-24.06 6.8-34.61 3.8-7.03 9.37-12.59 15.63-17.32l-10.57-58.09-48 8.73 36.42 168.96C2421.02 2377.02 2425.03 2367.66 2425.57 2358.26zM2162.77 2287.4c6.52 10.31 11.37 21.6 14.98 33.3l22.53-104.51-48-8.73-10.25 56.36C2150.2 2270.49 2157.11 2278.46 2162.77 2287.4z" opacity=".2"/><rect width="336.82" height="62.96" x="2119.11" y="2175.98" fill="#d6980d"/><path fill="#fff" d="M2026.25,2191.72c0,0,317.93,69.25,453.29,0s129.06-525.69,88.14-557.17
			c-40.92-31.48-135.36,299.04-138.5,409.22C2429.17,2043.77,1853.12,2090.99,2026.25,2191.72z"/></g><g><path fill="#fff" d="M1547.57 1198.91c1.2-3.15 1.8-7 1.8-11.53v-5.33c0-11.83 1.91-29.77 5.75-53.82 3.59-24.64 5.39-43.17 5.39-55.59v-21.59c0-10.25 1.56-19.32 4.67-27.2v-1.48c.72-2.17 1.08-4.73 1.08-7.69v-4.43c0-2.17-.84-3.85-2.52-5.03-1.68-1.18-3.95-1.77-6.83-1.77-7.19 0-10.78 2.36-10.78 7.1 0 1.58.36 3.25 1.08 5.02 0 5.72-.84 13.11-2.52 22.18-1.92 8.87-2.87 16.37-2.87 22.47 0 38.64-2.28 71.17-6.83 97.58-1.92-11.83-3.59-24.54-5.03-38.14-1.92-17.75-4.13-33.16-6.65-46.28-2.51-13.11-5.69-25.18-9.52-36.22v-2.36c0-2.36-1.02-4.19-3.05-5.47-2.04-1.28-4.62-1.92-7.73-1.92l-9.7 3.55c0 14.79-.84 29.77-2.52 44.95-1.2 13.6-2.7 26.27-4.49 38-1.8 11.73-3.9 24.2-6.29 37.41l-1.8 10.05c-.72-13.4-3.59-34.8-8.63-64.17-5.03-29.57-7.54-52.04-7.54-67.42 0-13.01-3.84-19.51-11.5-19.51-4.79 0-8.27 1.77-10.42 5.32 2.39 4.14 4.43 13.51 6.11 28.1 2.15 17.55 3.83 34 5.03 49.38 2.16 23.66 4.25 43.22 6.29 58.7 2.03 15.48 4.61 28.44 7.73 38.88 3.6 11.83 7.78 17.75 12.58 17.75 5.75 0 10.9-9.56 15.45-28.69 4.07-17.15 7.06-34.79 8.98-52.93 1.92-18.14 2.88-32.73 2.88-43.77 0-5.52.48-11.13 1.44-16.86l5.75 31.05c2.39 11.64 4.67 23.17 6.83 34.6 4.07 25.43 6.11 46.13 6.11 62.1 0 3.16 1.02 5.77 3.06 7.84 2.03 2.07 4.97 3.1 8.8 3.1C1542.66 1204.82 1546.13 1202.85 1547.57 1198.91zM1607.58 1139.18l.72 18.92c.72 8.48 1.08 14.79 1.08 18.93 0 2.36.12 4.43.36 6.21v5.92 7.69c.24 2.56 1.62 4.73 4.13 6.5 2.51 1.77 5.33 2.66 8.45 2.66h30.55c4.31 0 7.96-.74 10.96-2.22 2.99-1.48 4.49-3.6 4.49-6.35 0-4.73-4.56-7.1-13.66-7.1-5.75 0-10.66.1-14.73.3l-11.86.3c-.48 0-.72-5.52-.72-16.56 0-5.92.36-14.88 1.08-26.91.24-7.88.36-16.75.36-26.61 0-9.85-.24-17.35-.72-22.47h8.98c2.39.4 5.75.59 10.06.59 3.35 0 6.11-.74 8.27-2.22 2.16-1.48 3.24-3.3 3.24-5.47 0-5.52-5.75-8.28-17.25-8.28-2.88 0-5.27.1-7.19.3l-5.75.3-1.08-4.73c0-4.73.36-11.83 1.08-21.29.24-6.31.36-13.4.36-21.29 0-5.52-.12-9.76-.36-12.71 8.14.99 17.25 2.96 27.31 5.91 2.88-.98 5.33-2.31 7.37-3.99 2.03-1.67 3.06-3.5 3.06-5.47 0-3.55-5.21-6.61-15.64-9.17-10.42-2.56-19.58-3.85-27.49-3.85-10.06 0-15.1 7-15.1 21 0 2.57.36 6.71 1.08 12.42.72 5.52 1.08 9.66 1.08 12.42 0 11.64-.48 26.03-1.44 43.17C1607.94 1115.13 1607.58 1129.52 1607.58 1139.18zM1869.93 1156.33c7.43-20.3 14.61-42.38 21.56-66.24 6.95-24.64 10.9-38.24 11.86-40.81 0 6.71-.24 12.72-.72 18.04l-.72 18.33c0 6.71.95 19.03 2.87 36.96 1.68 15.97 2.52 28.88 2.52 38.74v18.92 18.93c0 12.22 3.71 18.33 11.14 18.33 3.35 0 6.23-1.28 8.63-3.84 2.39-2.57 3.59-5.52 3.59-8.87 0-1.18-.6-3.05-1.8-5.62 0-.2-.06-.79-.18-1.77-.12-.99-.3-2.37-.54-4.14l-1.08-10.35c-.72-4.73-1.08-8.28-1.08-10.65l.72-15.67.36-15.67c0-14.59-.84-35.09-2.52-61.51-1.44-28.39-2.16-49.68-2.16-63.88 0-2.36-1.38-4.29-4.14-5.76-2.76-1.48-5.81-2.22-9.16-2.22-3.59 0-7.55 4.14-11.86 12.42-4.31 7.68-8.75 18.33-13.3 31.93-7.67 22.28-15.34 47.22-23 74.82l-2.15 7.09c-1.2 4.54-2.76 9.46-4.67 14.78-2.4-10.44-7.79-27.4-16.17-50.86-8.39-23.46-16.77-44.45-25.16-62.98-8.39-18.53-14.14-27.8-17.25-27.8-3.84 0-7.13.65-9.88 1.93-2.76 1.28-4.13 3.1-4.13 5.47 0 1.98.72 3.84 2.16 5.62 0 20.1-1.79 50.27-5.39 90.48-3.59 40.22-5.39 70.38-5.39 90.49 0 1.77 1.08 3.4 3.24 4.88 2.15 1.48 4.43 2.22 6.83 2.22 4.55 0 7.66-.84 9.34-2.52 1.67-1.68 2.52-4.19 2.52-7.54v-4.14c-.24-1.37-.36-2.85-.36-4.43 0-6.7.24-19.12.72-37.26.72-18.73 2.03-42.18 3.95-70.38l2.16-33.42c6.95 17.94 14.67 41.01 23.18 69.2 8.5 28.19 12.76 46.62 12.76 55.3 0 3.94 1.38 7.05 4.14 9.31 2.75 2.27 6.41 3.4 10.96 3.4C1856.87 1185.6 1862.74 1175.84 1869.93 1156.33zM2064.71 1089.2v-2.36c0-9.26-.72-18.04-2.16-26.32-1.44-8.08-3.83-15.72-7.19-22.92-3.36-7.19-7.43-13.26-12.22-18.19-5.27-5.12-11.74-9.11-19.41-11.98-7.67-2.85-16.29-4.29-25.88-4.29-3.36 0-6.35 1.03-8.98 3.1-2.64 2.07-4.79 5.08-6.47 9.02-4.31 8.87-7.07 18.04-8.27 27.5-1.68 13.8-2.64 23.86-2.87 30.16l-.36 20.7v5.32c.23 0 .36.5.36 1.48v5.33c-.24 1.58-.36 3.55-.36 5.91 0 12.42 1.08 25.34 3.23 38.74 1.67 14.19 5.99 27.3 12.94 39.33 3.35 5.52 7.67 9.91 12.94 13.16 5.27 3.25 11.02 4.88 17.25 4.88 32.1 0 48.16-28.39 48.16-85.16l-.36-16.85C2064.83 1100.83 2064.71 1095.31 2064.71 1089.2zM2044.23 1146.86c-.96 11.64-3.72 22.47-8.27 32.53-1.92 4.93-4.67 8.82-8.26 11.68-3.6 2.86-7.55 4.29-11.86 4.29-7.43 0-13.06-7.29-16.89-21.88-3.83-14-6.23-28.39-7.19-43.17-.72-10.45-1.08-21-1.08-31.64 0-4.93.24-9.46.72-13.6l.72-13.6v-7.99c-.24-2.56-.36-5.71-.36-9.46 0-9.66 1.2-17.54 3.59-23.66 2.63-7.68 8.02-11.53 16.17-11.53 8.14 0 15.03 2.76 20.67 8.28 5.63 5.52 8.68 12.03 9.17 19.52v5.32c0 7.49.72 18.83 2.16 34.01 1.67 14.4 2.51 26.02 2.51 34.89C2046.02 1128.14 2045.42 1136.81 2044.23 1146.86zM2176.29 1081.51c1.08-4.93 3.29-12.32 6.65-22.18 4.07-11.43 7.13-21.24 9.17-29.43 2.03-8.18 3.05-15.82 3.05-22.92 0-1.77-.84-3.3-2.51-4.58-1.68-1.28-3.59-1.92-5.75-1.92h-7.91c-2.64 12.82-7.19 36.77-13.66 71.86-7.91 41.01-14.38 72.35-19.41 94.04-.72-3.15-1.56-8.38-2.51-15.67l-4.31-26.32-2.16-11.53c-4.08-23.26-7.55-40.51-10.42-51.75-3.12-11.83-5.99-21.74-8.63-29.72-2.64-7.99-5.51-14.35-8.63-19.08-3.11-4.93-6.47-7.39-10.06-7.39-2.16 0-4.14.7-5.93 2.07-1.8 1.38-2.7 2.96-2.7 4.73 0 2.96 2.16 9.96 6.47 21 1.67 4.14 2.75 7.2 3.24 9.16 11.02 35.1 19.1 64.76 24.26 89.01 5.15 24.25 7.73 47.71 7.73 70.38l6.83 4.43c5.51 0 10.42-3.25 14.73-9.76 4.31-6.5 7.78-15.47 10.42-26.91 4.07-18.92 7.06-40.31 8.98-64.17C2174.19 1094.23 2175.22 1086.44 2176.29 1081.51zM2232.9 1139.18l.72 18.92c.72 8.48 1.08 14.79 1.08 18.93 0 2.36.12 4.43.36 6.21v5.92 7.69c.24 2.56 1.62 4.73 4.13 6.5 2.52 1.77 5.33 2.66 8.45 2.66h30.55c4.31 0 7.96-.74 10.96-2.22 2.99-1.48 4.49-3.6 4.49-6.35 0-4.73-4.56-7.1-13.66-7.1-5.75 0-10.66.1-14.73.3l-11.86.3c-.48 0-.72-5.52-.72-16.56 0-5.92.36-14.88 1.08-26.91.24-7.88.36-16.75.36-26.61 0-9.85-.24-17.35-.72-22.47h8.98c2.39.4 5.75.59 10.06.59 3.35 0 6.11-.74 8.26-2.22s3.23-3.3 3.23-5.47c0-5.52-5.75-8.28-17.25-8.28-2.88 0-5.27.1-7.19.3l-5.75.3-1.08-4.73c0-4.73.36-11.83 1.08-21.29.24-6.31.36-13.4.36-21.29 0-5.52-.12-9.76-.36-12.71 8.14.99 17.25 2.96 27.31 5.91 2.88-.98 5.33-2.31 7.37-3.99 2.03-1.67 3.06-3.5 3.06-5.47 0-3.55-5.21-6.61-15.64-9.17-10.42-2.56-19.58-3.85-27.49-3.85-10.06 0-15.1 7-15.1 21 0 2.57.36 6.71 1.08 12.42.72 5.52 1.08 9.66 1.08 12.42 0 11.64-.48 26.03-1.44 43.17C2233.25 1115.13 2232.9 1129.52 2232.9 1139.18zM1492.94 1363.32h-2.88-2.87c-7.19 0-15.34-.49-24.44-1.48-9.58-.78-17.73-1.18-24.44-1.18-2.64 0-5.21.65-7.73 1.92-2.52 1.29-3.77 2.71-3.77 4.29 0 1.97 1.31 3.74 3.95 5.32 3.83 1.98 12.7 3.16 26.6 3.55.48 11.63 2.15 37.95 5.03 78.95 2.88 41.01 4.67 62.6 5.39 64.76l-.36 10.06c0 4.14.12 7.89.36 11.24l.36 11.53 6.47 3.84c3.11 0 5.93-.89 8.45-2.66 2.52-1.77 3.77-3.85 3.77-6.21 0-19.91-1.92-47.9-5.75-83.98-4.08-38.44-6.11-66.43-6.11-83.98l.36-1.48.36-1.48 7.19 1.18c4.07.59 7.19.89 9.34.89 3.11 0 5.87-.74 8.27-2.22 2.39-1.48 3.59-3.4 3.59-5.77C1504.09 1365.69 1500.37 1363.32 1492.94 1363.32zM1630.23 1477.46l-.36-16.85c-.24-4.93-.36-10.45-.36-16.56v-2.36c0-9.26-.72-18.04-2.16-26.32-1.44-8.08-3.83-15.72-7.19-22.92-3.36-7.19-7.43-13.26-12.22-18.19-5.27-5.12-11.74-9.11-19.41-11.98-7.67-2.85-16.29-4.29-25.88-4.29-3.36 0-6.35 1.03-8.99 3.1-2.64 2.07-4.79 5.08-6.47 9.02-4.31 8.87-7.07 18.04-8.27 27.5-1.68 13.8-2.64 23.86-2.87 30.16l-.36 20.7v5.32c.24 0 .36.5.36 1.48v5.33c-.24 1.58-.36 3.55-.36 5.91 0 12.42 1.08 25.34 3.23 38.74 1.68 14.19 5.99 27.3 12.94 39.33 3.35 5.52 7.67 9.91 12.94 13.16 5.27 3.25 11.02 4.88 17.25 4.88C1614.17 1562.62 1630.23 1534.24 1630.23 1477.46zM1609.02 1501.71c-.96 11.64-3.72 22.47-8.27 32.53-1.92 4.93-4.67 8.82-8.27 11.68-3.6 2.86-7.55 4.29-11.86 4.29-7.43 0-13.06-7.29-16.89-21.88-3.83-14-6.23-28.39-7.19-43.18-.72-10.45-1.08-21-1.08-31.64 0-4.93.24-9.46.72-13.6l.72-13.6v-7.99c-.24-2.56-.36-5.71-.36-9.46 0-9.66 1.2-17.54 3.59-23.66 2.63-7.69 8.02-11.53 16.17-11.53 8.14 0 15.03 2.76 20.67 8.28 5.63 5.52 8.68 12.03 9.17 19.52v5.32c0 7.49.72 18.83 2.16 34.01 1.67 14.4 2.52 26.02 2.52 34.89C1610.82 1482.98 1610.22 1491.65 1609.02 1501.71zM1721.15 1556.27c2.39 1.48 5.03 2.22 7.91 2.22 3.11 0 5.51-.89 7.19-2.66 3.11-3.15 5.39-9.56 6.83-19.22 2.64-13.79 4.67-22.96 6.11-27.5l35.58 4.43 1.44 6.21c2.39 14.19 3.6 24.25 3.6 30.16 0 3.75 1.31 6.31 3.95 7.69 2.63 1.38 6.71 2.07 12.22 2.07 3.83-1.18 5.75-3.94 5.75-8.28v-.3c0-2.75-1.08-8.87-3.23-18.33-2.4-10.45-3.59-16.36-3.59-17.75 0-1.37-.6-4.33-1.8-8.87-1.2-4.93-1.8-7.99-1.8-9.17 0-12.22-2.4-33.51-7.19-63.88-5.03-29.57-7.54-51.85-7.54-66.83 0-2.36-1.2-4.19-3.59-5.47-2.4-1.28-5.27-1.92-8.63-1.92h-12.22c-1.92 2.17-3.29 5.42-4.13 9.76-.84 4.34-1.62 10.15-2.34 17.44-.24 3.55-.48 6.26-.72 8.13-.24 1.88-.36 3.21-.36 4-8.15 49.28-20.12 99.26-35.94 149.92l-.36 1.18-.72 1.48C1717.55 1552.97 1718.75 1554.79 1721.15 1556.27zM1771.82 1393.19l3.59 30.76c3.83 27.6 5.75 50.27 5.75 68.01 0 4.34.36 7.99 1.08 10.94-17.49-1.18-28.03-2.76-31.63-4.73C1754.44 1474.51 1761.52 1439.51 1771.82 1393.19zM1989.03 1544.74l2.39 6.23c1 4.15 2.6 7.16 4.87 9.18 2.49 2.22 5.92 3.34 10.2 3.34 1.55 0 4.45-.3 14.18-2.5l2.03-.46 1.24-1.67c2.97-4.01 6.45-14.64 9.71-62.98 2.39-35.4 3.84-68.73 4.33-99.15v-22.17c0-4.67-1.34-8.65-3.99-11.86-2-2.41-5.71-5.28-12.04-5.28-8.91 0-14.23 5.41-14.23 14.47 0 1.53.12 3 .36 4.37v3.32c0 46.8-1.61 88.98-4.79 125.75-1.26-3.57-2.62-7.44-4.06-11.63l-3.6-10.68c-8.85-25.77-16.07-45.94-21.46-59.92-5.43-14.1-11.63-27.74-18.43-40.54-8.69-16.33-15.93-24.64-23.06-26.31v-5.94l-8.55 5.28c-10.21 6.3-15.6 15.52-15.6 26.65 0 5.79-.36 14.94-1.07 27.17-.72 12.09-1.09 21.45-1.09 27.84 0 18.79.12 35.93.36 50.9l.36 50.53c0 20.57 10.72 23.65 17.1 23.65 4.43 0 8.29-1.32 11.47-3.94 3.45-2.84 5.28-6.59 5.28-10.84 0-2.18-.72-4.29-2.15-6.26-.57-.78-.96-1.32-1.37-1.96l-.44-.63v-122.84c7.76 16.4 17.09 37.16 27.88 62.06 21.8 50.29 24.15 61.72 24.15 64.31V1544.74zM2129.4 1539.58c-5.85 0-10.85.11-14.87.3l-6.71.17c-.07-2.23-.12-5.64-.12-10.83 0-5.74.36-14.69 1.08-26.74.24-7.99.36-17 .36-26.78 0-6.62-.11-12.27-.33-16.87h2.55c2.63.4 6.08.59 10.5.59 4.49 0 8.34-1.08 11.43-3.2 4.69-3.21 5.67-7.26 5.67-10.09 0-6.33-3.97-13.89-22.85-13.89-3.1 0-5.64.1-7.48.3l-.93.05c.05-4.54.41-11.19 1.07-19.96.24-6.43.36-13.66.36-21.51 0-2.25-.02-4.31-.06-6.17 6.1 1.07 12.75 2.66 19.83 4.74l1.71.5 1.68-.57c3.49-1.19 6.56-2.86 9.12-4.97 4.21-3.47 5.1-7.24 5.1-9.79 0-8.62-10.64-12.33-19.9-14.61-10.83-2.67-20.53-4.01-28.83-4.01-7.73 0-20.7 3.45-20.7 26.6 0 2.81.37 7.1 1.12 13.14.68 5.25 1.03 9.19 1.03 11.7 0 11.43-.48 25.85-1.43 42.96-.72 19.09-1.08 33.68-1.08 43.6l.74 19.18c.7 8.3 1.06 14.52 1.06 18.46 0 2.48.12 4.64.36 6.57l.02 13.76c.27 2.92 1.61 7.13 6.48 10.57 3.47 2.45 7.39 3.68 11.68 3.68h30.55c5.15 0 9.67-.94 13.44-2.8 6.63-3.27 7.62-8.53 7.62-11.38C2148.66 1547.53 2146.16 1539.58 2129.4 1539.58zM2297.94 1355.48c-2.63-1.86-6.02-2.8-10.06-2.8-15.2 0-16.38 9.73-16.38 12.7 0 1.94.36 3.96 1.07 6.02-.09 5.21-.9 11.98-2.38 20.01-1.99 9.21-3 17.16-3 23.66 0 18.33-.53 35.36-1.57 51-1.72-14.62-3.68-27.67-5.83-38.9-2.48-12.94-5.65-25.09-9.42-36.1v-1.43c0-4.28-2.01-7.9-5.68-10.22-2.94-1.84-6.54-2.78-10.71-2.78h-.99l-14.32 5.23v3.92c0 14.47-.83 29.39-2.49 44.46-1.19 13.48-2.69 26.15-4.45 37.65-.46 2.99-.94 6.05-1.44 9.18-1.18-7.86-2.58-16.53-4.2-25.98-4.95-29.12-7.47-51.49-7.47-66.48 0-21.86-10.72-25.12-17.11-25.12-8.54 0-12.99 4.36-15.21 8.01l-1.72 2.84 1.66 2.88c1.12 1.95 3.32 7.9 5.4 25.98 2.13 17.36 3.81 33.89 5.01 49.21 2.16 23.69 4.29 43.51 6.31 58.92 2.06 15.68 4.72 29.05 7.91 39.76l.01.03c2.83 9.32 7.78 21.72 17.94 21.72 9.03 0 15.47-10.18 20.91-32.99 4.1-17.27 7.16-35.32 9.1-53.63.61-5.82 1.13-11.3 1.55-16.43 1.46 7.33 2.88 14.59 4.23 21.75 4.01 25.02 6.04 45.61 6.04 61.21 0 4.6 1.62 8.67 4.66 11.76 3.11 3.17 7.42 4.78 12.81 4.78 10.6 0 14.38-6.01 15.66-9.53 1.43-3.78 2.16-8.33 2.16-13.52v-5.33c0-11.5 1.91-29.31 5.69-53.01 3.61-24.79 5.45-43.77 5.45-56.4v-21.59c0-9.5 1.44-17.95 4.28-25.15l.39-.99v-1.71c.72-2.52 1.08-5.38 1.08-8.53v-4.43C2302.84 1361.13 2301.1 1357.71 2297.94 1355.48zM1682.55 1716.1v-3.92l-7.15-2.61c-3.7-1.17-6.6-1.74-8.88-1.74-4.07 0-7.66 1.11-10.66 3.28-4.44 3.22-5.37 7.22-5.37 10.01 0 10.98.85 25.39 2.53 42.72 1.32 17.01 2.03 30.28 2.13 39.5h-8.4c-6.54 0-10.9-.25-13.79-.57.05-11.68.28-22.44.71-32.16l.72-36.78c0-20.32-10.72-23.35-17.1-23.35-4.27 0-8.07 1.44-10.99 4.15-3.06 2.82-4.67 6.4-4.67 10.32 0 7.57.36 18.9 1.08 33.69.71 14.66 1.07 25.81 1.08 32.79l-1.09 17.5v1.48l.15 1.28c.02.1.21 1.13.21 4.94v9.17c0 7.42-.12 14.45-.36 21.12l-.72 24.12c0 12.45 1.03 22.77 3.06 30.7 3.28 12.5 10.03 15.12 15.12 15.12 4.7 0 8.76-1.78 11.75-5.15 2.84-3.22 4.28-7.05 4.28-11.4 0-5.44-.37-13.72-1.09-24.61-.71-10.9-1.07-18.93-1.07-23.89v-27.64c2.55.32 4.21.54 4.94.64 6.43 1.11 11.64 1.38 15.38 1.2-.05.7-.12 1.33-.21 1.92l-.06.41 0 4.11-.72 30.49v.12c0 38.13 5.33 54.4 17.82 54.4 4.41 0 8.37-1.08 11.78-3.22 4.13-2.58 6.4-6.58 6.4-11.5l-3.24-74.86C1683.76 1781.51 1682.55 1743.9 1682.55 1716.1zM1821.99 1798.89v-2.36c0-9.55-.75-18.73-2.24-27.3-1.51-8.52-4.08-16.69-7.62-24.31-3.61-7.73-8.08-14.37-13.39-19.84-5.8-5.64-12.99-10.09-21.36-13.21-8.28-3.08-17.64-4.64-27.83-4.64-4.63 0-8.81 1.44-12.45 4.3-3.38 2.66-6.12 6.44-8.04 10.97-4.57 9.39-7.52 19.23-8.79 29.27-1.72 14.13-2.67 24.14-2.91 30.74l-.36 20.8v10.92h.36v.8c-.24 1.77-.36 3.84-.36 6.31 0 12.67 1.11 26.01 3.27 39.4 1.76 14.89 6.35 28.84 13.71 41.58 3.8 6.26 8.77 11.31 14.79 15.02 6.14 3.79 12.93 5.71 20.19 5.71 35.67 0 53.76-30.54 53.76-90.89l-.36-17.01C1822.11 1810.42 1821.99 1804.94 1821.99 1798.89zM1749.37 1772.64c-.22-2.35-.33-5.36-.33-8.94 0-8.91 1.08-16.19 3.29-21.84 1.86-5.43 5.11-7.74 10.87-7.74 6.68 0 12.15 2.18 16.74 6.68 4.65 4.56 7.1 9.76 7.49 15.52v5.32c0 7.65.73 19.27 2.2 34.65 1.64 14.15 2.48 25.68 2.48 34.25 0 7.02-.59 15.54-1.78 25.56-.9 10.93-3.52 21.25-7.9 30.95-1.57 4.03-3.71 7.08-6.53 9.33l0 .01c-2.59 2.06-5.33 3.07-8.37 3.07-5.94 0-9.73-11.09-11.49-17.76-3.72-13.57-6.07-27.72-7-42.07-.71-10.26-1.06-20.78-1.06-31.26 0-4.73.23-9.09.71-13.31l.72-13.9L1749.37 1772.64zM1944.46 1709.25c-2.82-2.32-6.49-3.49-10.92-3.49-5.29 0-8.88.92-11.29 2.9-1.84 1.51-4.02 4.38-4.02 9.51 0 1.19.12 2.25.36 3.21v18.37c0 146.09-16.89 153.49-20.27 153.49-11.94 0-17.04-4.87-17.04-16.28 0-4.95-.83-15.39-2.56-32.06-1.64-12.7-2.47-23.01-2.47-30.62v-80.43c0-5.21-1.45-10.11-4.31-14.57-4.2-6.53-9.08-7.9-12.44-7.9-3.52 0-8.55 1.6-12.52 9.23l-.63 1.21v1.37c0 1.77.24 6.34.72 13.6 0 2.85.12 4.93.37 6.46l.35 22.23c0 30.7.36 57.02 1.08 78.06 0 12.92.88 24.22 2.59 33.42 1.79 11.23 5.86 21.46 12.14 30.5 3.43 4.72 7.93 8.36 13.36 10.82 5.26 2.39 11.24 3.61 17.77 3.61 34.97 0 51.97-44.78 51.97-136.9 0-1.18-.12-2.31-.36-3.38l-.01-1.32.68-12c.51-3.79.77-8.12.77-12.87 0-3.8.46-8.47 1.41-14.21.75-7.15 1.11-12.27 1.11-15.66 0-4.98-.27-6.89-.52-8.13C1948.99 1714.26 1947.2 1711.51 1944.46 1709.25zM2030.61 1818.04l-12.63-19.59-8-11.95c-3.05-4.31-5.6-9.2-7.58-14.53-1.91-5.16-2.88-10.32-2.88-15.35 0-3.83 1.21-8.93 3.52-15 1.91-4.6 4.12-7.26 6.57-7.92 5.84 2.34 12.65 2.13 17.33-.63 3.41-2 5.29-5.19 5.29-8.98 0-3.59-1.43-8.74-8.26-12.92-4.6-2.8-9.63-4.22-14.95-4.22-6.57 0-12.61 1.74-17.95 5.18-5.23 3.37-9.32 7.81-12.21 13.26-5.17 10.21-7.79 20.21-7.79 29.74 0 8.33 1.57 16.75 4.65 24.99 2.28 6.25 5.1 12.15 8.38 17.54 3.14 5.17 7.07 11.14 11.71 17.77l3.94 5.6c9.35 13.37 14.08 26.12 14.08 37.89 0 6.84-1.48 14.81-4.39 23.68-1.38 4.23-3.4 7.5-6.17 10.02-2.43 2.2-5.02 3.27-7.91 3.27-1.1 0-3.28-.14-6.9-.72-3.67-.93-6.27-1.35-8.19-1.35h-2.72l-7.13 9.07.36 2.4c.71 4.71 3.36 8.7 7.67 11.53 3.68 2.42 8.15 4.01 13.28 4.72l6.37.87v-2.01c6.22-.67 12.05-2.48 17.39-5.41 6.95-3.81 12.43-8.96 16.27-15.27 7.23-11.7 10.9-24.23 10.9-37.25 0-7.95-1.1-15.92-3.26-23.69C2037.21 1831.04 2034.29 1824.1 2030.61 1818.04zM2123.64 1894.42c-5.85 0-10.85.11-14.87.3l-6.71.17c-.07-2.23-.12-5.64-.12-10.83 0-5.74.36-14.69 1.08-26.74.24-7.99.36-17 .36-26.78 0-6.62-.11-12.27-.33-16.87h2.55c2.63.4 6.08.59 10.5.59 4.49 0 8.34-1.08 11.43-3.2 4.68-3.21 5.67-7.26 5.67-10.09 0-6.33-3.97-13.89-22.85-13.89-3.1 0-5.64.1-7.48.3l-.93.05c.05-4.54.41-11.19 1.07-19.96.24-6.43.36-13.66.36-21.51 0-2.25-.02-4.31-.06-6.17 6.1 1.07 12.74 2.66 19.83 4.74l1.7.5 1.68-.57c3.49-1.19 6.56-2.86 9.12-4.97 4.21-3.47 5.1-7.24 5.1-9.79 0-8.62-10.64-12.33-19.9-14.61-10.83-2.67-20.53-4.01-28.83-4.01-7.73 0-20.7 3.45-20.7 26.6 0 2.81.37 7.1 1.12 13.14.68 5.25 1.03 9.19 1.03 11.7 0 11.43-.48 25.85-1.43 42.96-.72 19.09-1.08 33.68-1.08 43.6l.74 19.18c.7 8.3 1.06 14.52 1.06 18.46 0 2.48.12 4.64.36 6.57l.02 13.76c.27 2.92 1.61 7.13 6.48 10.57 3.47 2.45 7.4 3.68 11.68 3.68h30.55c5.15 0 9.67-.94 13.44-2.8 6.63-3.27 7.62-8.53 7.62-11.38C2142.91 1902.38 2140.41 1894.42 2123.64 1894.42z"/></g><g><polygon fill="#d3c9cf" points="1636.48 2232.35 1583.52 2271.8 979.74 2271.8 1011.06 2257.18 1046.11 2240.82 1064.26 2232.35"/><rect width="603.76" height="406.62" x="979.75" y="2271.8" fill="#e2d7de"/><g opacity=".5"><path fill="#493a41" d="M1058.35,2648.29h-40.1v-29.75h40.1V2648.29z M1021,2645.54h34.6v-24.24H1021V2645.54z"/><path fill="#493a41" d="M1039.21 2633.36h11.56c0 0-1.95-9.72-12.47-9.72-9.25 0-12.47 9.72-12.47 9.72h11.56v7.61h-2.71v2.24h7.17v-2.24h-2.63V2633.36zM1104.35 2648.29h-40.1v-29.75h40.1V2648.29zM1067 2645.54h34.59v-24.24H1067V2645.54z"/><path fill="#493a41" d="M1088.26 2643.21h-9.41v-9.41h9.41V2643.21zM1081.61 2640.46h3.9v-3.9h-3.9V2640.46zM1098.16 2643.21h-9.41v-9.41h9.41V2643.21zM1091.5 2640.46h3.9v-3.9h-3.9V2640.46z"/><g><path fill="#493a41" d="M1149.94,2648.29h-40.1v-29.75h40.1V2648.29z M1112.59,2645.54h34.59v-24.24h-34.59V2645.54z"/></g><path fill="#493a41" d="M1134.99,2626.13v5.41c0,2.76-2.24,4.99-4.99,4.99c-2.76,0-4.99-2.24-4.99-4.99v-5.41h-4.56v5.82
				c0,5.28,4.28,9.56,9.56,9.56c5.28,0,9.56-4.28,9.56-9.56v-5.82H1134.99z"/></g><polygon fill="#d3c9cf" points="1246.62 2268.92 1246.62 2350.24 1257.71 2342.85 1261.2 2350.24 1265.1 2343.88 1273.11 2350.24 1278.65 2344.29 1283.38 2350.24 1292 2344.9 1297.55 2350.24 1310.07 2342.85 1316.65 2350.24 1316.65 2268.92"/><polygon fill="#493a41" points="1316.65 2271.8 1337.75 2257.17 1324.74 2258.5 1323.17 2257.17 1317.61 2258.31 1311.26 2257.17 1304.17 2258.24 1300.99 2257.17 1290.98 2258.13 1286.82 2257.17 1272.37 2258.5 1267.72 2257.17 1246.62 2271.8" opacity=".5"/><polygon fill="#493a41" points="1304.71 2232.37 1283.61 2247 1296.61 2245.67 1298.19 2247 1303.74 2245.85 1310.1 2247 1317.19 2245.93 1320.37 2247 1330.38 2246.04 1334.54 2247 1348.98 2245.67 1353.64 2247 1374.74 2232.37" opacity=".5"/><polygon fill="#d3c9cf" points="1316.65 2682.18 1316.65 2600.86 1305.56 2608.25 1302.06 2600.86 1298.16 2607.22 1290.15 2600.86 1284.61 2606.81 1279.89 2600.86 1271.26 2606.19 1265.72 2600.86 1253.19 2608.25 1246.62 2600.86 1246.62 2682.18"/><rect width="145.4" height="81.32" x="1398.69" y="2317.8" fill="#eaefee"/><rect width="523.08" height="123.22" x="1021" y="2418.01" fill="#eaefee"/><polygon fill="#eaefee" points="1583.51 2271.8 1636.5 2232.37 1636.5 2633.83 1583.51 2678.41"/><path fill="#493a41" d="M1605.79 2255.22v37.32l2.78-4 .92 1.13 1.54-2.67 1.54 1.75 1.75-4.42 1.54 1.95 1.44-4.42c0 0 1.33 1.75 1.33 1.33s1.54-2.36 1.54-2.36l1.95.41v-38.18h-52.16l1.62 1.39-2.46.31 1.08 1.46-1.85.39.31 1.23-2.46-.08.39 1.69-2 .54 1.62 1.62-2.62.46 1.39 1.46-1.92.77 2.16 1.31L1605.79 2255.22zM1070.83 2245.2l-5.55 1.43 1.13 1.44-4.72 1.33 1.23 1.64-4.39.68c0 0 1.01 2.1.59 2.1-.41 0-4.52.62-4.52.62l-.61 2.73h-42.94l35.05-16.35 27.59.68-4.01 2.8L1070.83 2245.2z" opacity=".5"/></g><g><polygon fill="#d3c9cf" points="2137.81 2316.42 2178.46 2346.71 2642.01 2346.71 2617.96 2335.48 2591.05 2322.93 2577.12 2316.42"/><rect width="463.52" height="312.17" x="2178.47" y="2346.7" fill="#e2d7de" transform="rotate(-180 2410.234 2502.788)"/><g opacity=".5"><path fill="#493a41" d="M2581.65,2612.91h30.79v22.84h-30.79V2612.91z M2610.32,2615.02h-26.56v18.61h26.56V2615.02z"/><path fill="#493a41" d="M2596.34 2624.28h-8.88c0 0 1.5-7.47 9.57-7.47 7.1 0 9.57 7.47 9.57 7.47h-8.88v5.84h2.08v1.72h-5.5v-1.72h2.02V2624.28zM2546.34 2612.91h30.78v22.84h-30.78V2612.91zM2575.01 2615.02h-26.56v18.61h26.56V2615.02z"/><path fill="#493a41" d="M2558.69 2624.62h7.22v7.22h-7.22V2624.62zM2563.8 2626.73h-3v3h3V2626.73zM2551.09 2624.62h7.22v7.22h-7.22V2624.62zM2556.2 2626.73h-3v3h3V2626.73z"/><g><path fill="#493a41" d="M2511.34,2612.91h30.78v22.84h-30.78V2612.91z M2540.01,2615.02h-26.56v18.61h26.56V2615.02z"/></g><path fill="#493a41" d="M2522.82,2618.74v4.15c0,2.12,1.72,3.83,3.83,3.83c2.12,0,3.83-1.72,3.83-3.83v-4.15h3.5v4.47
				c0,4.05-3.29,7.34-7.34,7.34c-4.05,0-7.34-3.29-7.34-7.34v-4.47H2522.82z"/></g><polygon fill="#d3c9cf" points="2437.12 2344.5 2437.12 2406.93 2428.6 2401.25 2425.92 2406.93 2422.93 2402.04 2416.78 2406.93 2412.52 2402.36 2408.89 2406.93 2402.27 2402.83 2398.02 2406.93 2388.4 2401.25 2383.35 2406.93 2383.35 2344.5"/><polygon fill="#493a41" points="2383.35 2346.71 2367.15 2335.47 2377.14 2336.49 2378.35 2335.47 2382.61 2336.35 2387.49 2335.47 2392.93 2336.29 2395.37 2335.47 2403.06 2336.21 2406.25 2335.47 2417.34 2336.49 2420.91 2335.47 2437.11 2346.71" opacity=".5"/><polygon fill="#493a41" points="2392.52 2316.43 2408.72 2327.67 2398.73 2326.64 2397.52 2327.67 2393.26 2326.79 2388.38 2327.67 2382.94 2326.84 2380.5 2327.67 2372.81 2326.93 2369.62 2327.67 2358.53 2326.64 2354.95 2327.67 2338.75 2316.43" opacity=".5"/><polygon fill="#d3c9cf" points="2383.35 2661.76 2383.35 2599.33 2391.87 2605.01 2394.55 2599.33 2397.54 2604.22 2403.69 2599.33 2407.95 2603.9 2411.57 2599.33 2418.2 2603.43 2422.45 2599.33 2432.07 2605.01 2437.12 2599.33 2437.12 2661.76"/><rect width="111.62" height="62.43" x="2208.74" y="2382.02" fill="#eaefee" transform="rotate(-180 2264.555 2413.237)"/><rect width="401.58" height="94.6" x="2208.74" y="2458.96" fill="#eaefee" transform="rotate(-180 2409.533 2506.257)"/><polygon fill="#eaefee" points="2178.47 2346.7 2137.8 2316.43 2137.8 2624.64 2178.47 2658.87"/><path fill="#493a41" d="M2161.37 2333.98v28.65l-2.13-3.07-.71.87-1.18-2.05-1.18 1.34-1.34-3.39-1.18 1.5-1.1-3.39c0 0-1.03 1.34-1.03 1.02s-1.18-1.81-1.18-1.81l-1.5.32v-29.31h40.05l-1.24 1.07 1.89.24-.83 1.12 1.42.3-.24.95 1.89-.06-.3 1.3 1.54.41-1.24 1.24 2.01.35-1.06 1.12 1.48.59-1.66 1.01L2161.37 2333.98zM2572.07 2326.29l4.26 1.1-.87 1.1 3.63 1.02-.95 1.26 3.37.52c0 0-.77 1.61-.45 1.61s3.47.47 3.47.47l.47 2.1h32.96l-26.91-12.55-21.18.52 3.08 2.15L2572.07 2326.29z" opacity=".5"/></g><g><path fill="#ffbf9f" d="M2606.54,1185.89l-90.01,181.81l-321.36-47.13l-18.38,24.07c0,0,278.23,171.15,363.35,157.91
			c89.25-13.88,152.75-104.18,155.85-168.82C2698.98,1271.15,2668.85,1229.95,2606.54,1185.89z"/></g><g><path fill="#ffbf9f" d="M2133.75,1341.91c8.1,2.82,15.45,4.97,19.38,5.5c3.04,0.41,6,0.46,8.75,0.29c2.36-0.14,4.55-0.44,6.5-0.8
			c5.05-0.91,8.4-2.25,8.4-2.25l58.93,23.74c6.68-10.33,10.17-26.91,10.61-29.78c0,0-56.11-16.92-61.67-26.35
			c-0.07-0.07-0.12-0.18-0.16-0.26c-0.04-0.15-0.07-0.31-0.1-0.48c-0.61-2.44-2.99-5.5-6.18-8.39c-2.34-2.11-5.1-4.13-7.86-5.74
			c-6.76-3.93-8.29-25.3-13.06-24.61c-4.78,0.72-7.25,13.36-3.75,18.84c3.47,5.47-1.47,8.53-7.3,6.45l-1.83-0.65
			c-11.64-4.15-47.7-16.8-50.69-11.3c-1.95,3.59,12.48,10.34,23.88,15.01c-14.15-5.2-34.71-11.92-34.76-7.19
			c-0.04,3.64,19.86,12.97,31.02,18.07c-7.97-2.8-23.94-7.75-24.97-5.04c-2.22,5.84,13.8,12.47,24.84,16.27
			c-6.73-1.82-14.63-3.17-16.21-0.19C2095.61,1326.7,2116.41,1335.9,2133.75,1341.91z"/><path fill="#e8ad80" d="M2137.02 1308.91c-.02-.01-.04.01-.06 0l-17.5-7.61 17.89 6.63c.01 0 .02.01.03.01.04.02 2.03-3.5 3.27-5.1-1.42 2.53-2.56 5.19-3.6 7.88-.38 1-.74 2.01-1.1 3.02C2135.95 1313.74 2136.78 1309.41 2137.02 1308.91zM2132.96 1320.25c-.01 0-.03.01-.04 0l-17.5-7.61 17.77 6.58c.89-2.73 2.32-4.21 2.32-4.21-.43 1.29-.84 2.6-1.18 3.91-.45 1.59-.72 3.22-.93 4.87C2133.16 1323.75 2132.74 1321.37 2132.96 1320.25zM2132.05 1329.95l-17.93-6.52 18.13 5.48c-.01-.52.69-3.84.98-3.79 0 0 0 0 .01 0-.08.75-.14 1.5-.2 2.25-.21 2.86-.27 5.74-.28 8.63C2132.46 1334.01 2132.13 1329.98 2132.05 1329.95z"/><path fill="#fff" d="M2094.9 1287.08c.72-1.41 5.71-.9 6.09-.49 0 0-1.15 3.9-1.64 4.48C2098.85 1291.65 2094.18 1288.49 2094.9 1287.08zM2084.03 1293.88c.72-1.41 5.71-.9 6.09-.49 0 0-1.15 3.9-1.64 4.48C2087.97 1298.45 2083.3 1295.29 2084.03 1293.88zM2089.91 1308.4c.72-1.41 5.71-.9 6.09-.49 0 0-1.15 3.91-1.64 4.48C2093.86 1312.97 2089.18 1309.81 2089.91 1308.4zM2099.81 1324.13c.72-1.41 5.71-.9 6.09-.49 0 0-1.15 3.91-1.64 4.48C2103.75 1328.7 2099.08 1325.54 2099.81 1324.13zM2161.5 1280.05l-1.89 1.02c0 0-2.66-5.86-1.44-7.12C2159.38 1272.69 2161.5 1280.05 2161.5 1280.05z" opacity=".2"/></g><path fill="#00a99d" d="M2695.98,1123.03c-57.74-25.79-145.95,110.17-146.97,137.95c-1.02,27.77,130.63,136.96,148.61,132.28
		C2715.6,1388.58,2774.72,1158.2,2695.98,1123.03z"/><g><path fill="#ffbf9f" d="M1218.77,1021.34c0,0,73.79,3.27,76.36-13.95c1.2-8.06-2.16-11.7-26.67-13.51
					c30.05,1.12,29.93-3.31,27.11-12.32c-2.17-6.93-4.93-7.4-29.25-10.17c16.84,0.38,25.99-1.29,27.02-8.57
					c1.3-9.27-5.61-12.67-28.9-13.05c13.88-0.72,22.23-2.06,22.15-8.79c-0.07-5.95-4.93-11.41-20.02-12.31
					c-17.07-1.02-16.51-3.48-24.3-2.05c-6.01,1.1-12.37,1.58-16.77,4.85C1204.25,947.22,1205.9,1014.61,1218.77,1021.34z"/><path fill="#efac8f" d="M1250 992.61c11.98-.44 27.32 1.09 28.08 1.16.51.05.88.5.83 1.01-.05.51-.5.88-1.01.83-.22-.02-22.11-2.21-33.89-.69-.53.07-.97-.29-1.03-.8-.07-.51.29-.97.8-1.03C1245.65 992.84 1247.76 992.69 1250 992.61zM1252.88 970.47c10.65-.39 21.95.37 22.09.38.51.03.89.48.86.98-.04.51-.46.89-.98.86-.18-.01-18.54-1.25-30.34.27-.52.06-.97-.29-1.03-.8-.07-.51.29-.97.8-1.03C1246.91 970.78 1249.87 970.58 1252.88 970.47zM1253.22 948.51c10.3-.38 20.81.41 20.95.42.51.04.89.48.85.99-.04.51-.49.9-.99.85-.17-.01-17.23-1.29-29.01.22-.51.06-.97-.29-1.03-.8-.06-.51.29-.97.8-1.03C1247.42 948.82 1250.31 948.62 1253.22 948.51zM1223.29 943.55c.19-.01.38.04.55.16.42.28.54.86.25 1.28-11.55 17.19-3.72 31.78-3.64 31.93.12.23.15.49.07.74-4.93 14.75 3.69 26.73 3.78 26.85.3.41.21.99-.2 1.29-.41.3-.99.21-1.29-.2-.38-.51-9.15-12.66-4.17-28.17-1.19-2.48-7.22-16.92 3.91-33.48C1222.73 943.7 1223.01 943.56 1223.29 943.55z"/></g><g><path fill="#e2d7de" d="M1784.56,2263.38c-35.03,38.28-83.29,86.6-86.48,89.85c-0.11,0.06-0.17,0.11-0.17,0.11l-10.76-4.93
				l92.65-91.25l40.97-40.35C1822.95,2219.83,1806.3,2239.67,1784.56,2263.38z"/><path fill="#d3c9cf" d="M1721.44,2326.58c-3.1,1.47-5.97,2.17-9.41,2.12c-1.46-0.02-2.92-0.19-4.34-0.53l-20.55,20.24l10.76,4.93
				c0,0,0.06-0.06,0.17-0.11c1.47-1.5,12.6-12.65,27.53-27.93C1724.19,2325.54,1722.8,2325.93,1721.44,2326.58z"/><path fill="#e2d7de" d="M1724.7,2227.41c-14.23,49.9-35.8,114.69-37.2,119.03c-0.08,0.1-0.1,0.18-0.1,0.18l-11.83,0.4l42.09-123.04
				l18.61-54.41C1739.58,2171.3,1733.55,2196.49,1724.7,2227.41z"/><path fill="#d3c9cf" d="M1696.49,2312.16c-2.11,2.7-4.37,4.61-7.47,6.1c-1.31,0.63-2.7,1.14-4.12,1.47l-9.34,27.29l11.83-0.4
				c0,0,0.02-0.08,0.1-0.18c0.65-2,5.61-16.95,12.15-37.29C1698.48,2310.01,1697.41,2310.97,1696.49,2312.16z"/><path fill="#d3c9cf" d="M1595.53,2731.09c-47.35,0-94.83-2.98-141.12-8.86c-45.53-6.05-79.8-47.08-78.34-93.45l6.17-201.13
			c1.44-45.4,35.3-83.96,78.76-89.74c44.9-5.71,90.61-8.58,136.21-8.58c73.15,0,147.54,7.34,221.13,21.83
			c41.69,8.63,73.84,46.11,75.32,87.29l6.17,178.48c1.54,43.08-30.32,82.4-74.11,91.39
			C1748.82,2723.46,1671.53,2731.09,1595.53,2731.09z"/><path fill="#eaefee" d="M1782.46 2653.42c-116.89 23.01-236.07 28.06-352.96 13.21-16.81-2.23-29.93-18.66-29.38-36.08 2.05-67.06 4.11-134.12 6.16-201.18.55-17.41 14.01-33.76 30.13-35.91 112.31-14.27 226.81-9.42 339.12 12.69 16.12 3.34 29.58 18.92 30.13 34.31 2.05 59.47 4.11 118.93 6.16 178.4C1812.39 2634.24 1799.27 2649.96 1782.46 2653.42zM1876.43 2453.39c0 14.34-11.63 25.97-25.97 25.97-14.34 0-25.97-11.63-25.97-25.97 0-14.34 11.63-25.97 25.97-25.97C1864.81 2427.42 1876.43 2439.05 1876.43 2453.39zM1869.19 2499.28c0 3.34-8.39 6.05-18.73 6.05-10.34 0-18.73-2.71-18.73-6.05 0-3.34 8.39-6.05 18.73-6.05C1860.81 2493.24 1869.19 2495.94 1869.19 2499.28zM1869.19 2524.16c0 3.34-8.39 6.05-18.73 6.05-10.34 0-18.73-2.71-18.73-6.05 0-3.34 8.39-6.05 18.73-6.05C1860.81 2518.11 1869.19 2520.82 1869.19 2524.16zM1869.19 2549.03c0 3.34-8.39 6.05-18.73 6.05-10.34 0-18.73-2.71-18.73-6.05 0-3.34 8.39-6.05 18.73-6.05C1860.81 2542.98 1869.19 2545.69 1869.19 2549.03zM1869.19 2573.9c0 3.34-8.39 6.05-18.73 6.05-10.34 0-18.73-2.71-18.73-6.05s8.39-6.05 18.73-6.05C1860.81 2567.85 1869.19 2570.56 1869.19 2573.9z"/></g><g><path fill="#f6f6f6" d="M2908.44 544.86c-48.48 4.96 121.66 233.78 134.68 166.45C3056.14 643.98 3003.71 535.12 2908.44 544.86zM2832.5 456.57c-56.53 41.72 111.73 91.33 112.97 44.6C2946.72 454.44 2847.4 445.58 2832.5 456.57z"/></g><g><path fill="#e2d7de" d="M495.33,1037.37c0.68,1.02,88.34,0,88.34,0s7.51-18.6-10.55-26.27c-18.06-7.66-23.96,5.25-23.96,5.25
			s-0.18-6.39-6.62-7.68c-6.44-1.29-3.22,8.12-3.22,8.12s-5.01-8.54-12.88-9.41c-7.87-0.88-9.3,7.88-5.19,16.85
			C521.26,1024.24,486.56,1024.24,495.33,1037.37z"/><path fill="#eaefee" d="M506.99,1037.48c0.51,0.76,66.38,0,66.38,0s5.64-13.98-7.93-19.74c-13.57-5.76-18.01,3.95-18.01,3.95
			s-0.13-4.8-4.97-5.77c-4.84-0.97-2.42,6.1-2.42,6.1s-3.76-6.41-9.67-7.07c-5.91-0.66-6.99,5.92-3.9,12.66
			C526.47,1027.61,500.4,1027.61,506.99,1037.48z"/><path fill="#e2d7de" d="M869.3,1037.37c-0.68,1.02-88.34,0-88.34,0s-7.51-18.6,10.55-26.27c18.06-7.66,23.96,5.25,23.96,5.25
			s0.18-6.39,6.62-7.68c6.44-1.29,3.22,8.12,3.22,8.12s5.01-8.54,12.88-9.41c7.87-0.88,9.3,7.88,5.19,16.85
			C843.37,1024.24,878.06,1024.24,869.3,1037.37z"/><path fill="#eaefee" d="M857.64,1037.48c-0.51,0.76-66.38,0-66.38,0s-5.64-13.98,7.93-19.74c13.57-5.76,18.01,3.95,18.01,3.95
			s0.13-4.8,4.97-5.77c4.84-0.97,2.42,6.1,2.42,6.1s3.76-6.41,9.67-7.07c5.91-0.66,6.99,5.92,3.9,12.66
			C838.16,1027.61,864.22,1027.61,857.64,1037.48z"/><rect width="287.67" height="170.2" x="539.56" y="863.86" fill="#eaefee"/><polygon fill="#e8f0f0" points="827.23 903.33 539.56 877.41 539.56 863.86 827.23 863.86" opacity=".5"/><path fill="#d9e0df" d="M830.62,932.52H536.18c-5.5,0-9.96-0.52-9.96,4.98h314.37C840.58,931.99,836.12,932.52,830.62,932.52z"/><polygon fill="#d3c9cf" points="840.89 863.86 517.9 863.86 545.35 796.27 813.44 796.27"/><rect width="43.66" height="74.32" x="757.58" y="931.9" fill="#d9e0df" transform="rotate(-90 779.413 969.058)"/><rect width="37.94" height="70.1" x="760.44" y="934.01" fill="#e8f0f0" transform="rotate(-90 779.412 969.058)"/><polygon fill="#f4f2eb" points="785.16 950.09 814.46 988.03 805.76 988.03 790.95 970.92 796.92 988.03 774.72 988.03 744.36 950.09 763.52 950.09 776.95 969.06 769.49 950.09"/><rect width="42.17" height="1.93" x="758.33" y="968.09" fill="#d9e0df" transform="rotate(-90 779.413 969.058)"/><rect width="43.66" height="74.32" x="564.95" y="931.9" fill="#d9e0df" transform="rotate(-90 586.78 969.058)"/><rect width="37.94" height="70.1" x="567.81" y="934.01" fill="#e8f0f0" transform="rotate(-90 586.78 969.058)"/><polygon fill="#f4f2eb" points="592.53 950.09 621.83 988.03 613.13 988.03 598.31 970.92 604.29 988.03 582.08 988.03 551.73 950.09 570.89 950.09 584.32 969.06 576.86 950.09"/><rect width="42.17" height="1.93" x="565.7" y="968.09" fill="#d9e0df" transform="rotate(-90 586.78 969.058)"/><rect width="60.71" height="79.51" x="653.11" y="955.35" fill="#d9e0df"/><rect width="55.82" height="77.28" x="655.55" y="957.58" fill="#e8f0f0"/><polygon fill="#f4f2eb" points="711.37 1000.05 655.55 1030.55 655.55 1021.5 680.71 1006.08 655.55 1012.29 655.55 989.18 711.37 957.58 711.37 977.52 683.46 991.51 711.37 983.74"/><rect width="1.59" height="78.94" x="682.66" y="955.92" fill="#d9e0df"/><rect width="4.46" height=".73" x="686.29" y="996.97" fill="#d9e0df"/><rect width="4.46" height=".73" x="675.57" y="996.97" fill="#d9e0df"/><rect width="10.43" height="4.17" x="568.67" y="1014.91" fill="#d9e0df" opacity=".55" transform="rotate(-180 573.89 1016.998)"/><rect width="10.43" height="4.17" x="563.08" y="1010.74" fill="#d9e0df" opacity=".31" transform="rotate(-180 568.3 1012.825)"/><rect width="10.43" height="4.17" x="558.19" y="1006.54" fill="#d9e0df" opacity=".5" transform="rotate(-180 563.408 1008.622)"/><rect width="10.43" height="4.17" x="568.67" y="1006.56" fill="#d9e0df" opacity=".35" transform="rotate(-180 573.89 1008.651)"/><g><rect width="10.43" height="4.17" x="604.81" y="894.42" fill="#d9e0df" opacity=".55" transform="rotate(-180 610.024 896.506)"/><rect width="10.43" height="4.17" x="599.22" y="890.25" fill="#d9e0df" opacity=".31" transform="rotate(-180 604.434 892.333)"/><rect width="10.43" height="4.17" x="594.32" y="886.04" fill="#d9e0df" opacity=".5" transform="rotate(-180 599.542 888.13)"/><rect width="10.43" height="4.17" x="604.81" y="886.07" fill="#d9e0df" opacity=".35" transform="rotate(-180 610.024 888.16)"/></g><g><rect width="10.43" height="4.17" x="791.68" y="1012.85" fill="#d9e0df" opacity=".31" transform="rotate(-180 796.898 1014.94)"/><rect width="10.43" height="4.17" x="786.79" y="1008.65" fill="#d9e0df" opacity=".5" transform="rotate(-180 792.005 1010.738)"/><rect width="10.43" height="4.17" x="797.27" y="1008.68" fill="#d9e0df" opacity=".35" transform="rotate(-180 802.487 1010.766)"/></g><g><rect width="10.43" height="4.17" x="767.59" y="906.56" fill="#d9e0df" opacity=".31"/><rect width="10.43" height="4.17" x="772.48" y="910.76" fill="#d9e0df" opacity=".5"/><rect width="10.43" height="4.17" x="762" y="910.74" fill="#d9e0df" opacity=".35"/></g><g><rect width="13.67" height="9.97" x="630.94" y="858.99" fill="#e2d7de"/><rect width="13.67" height="9.97" x="630.94" y="870" fill="#e2d7de"/><rect width="13.67" height="9.97" x="630.94" y="881" fill="#e2d7de"/><rect width="13.67" height="9.97" x="630.94" y="892.01" fill="#e2d7de"/><rect width="13.67" height="9.97" x="630.94" y="903.02" fill="#e2d7de"/><rect width="13.67" height="9.97" x="630.94" y="914.02" fill="#e2d7de"/><rect width="13.67" height="9.97" x="630.94" y="925.03" fill="#e2d7de"/><rect width="13.67" height="9.97" x="630.94" y="936.04" fill="#e2d7de"/><rect width="13.67" height="9.97" x="630.94" y="947.04" fill="#e2d7de"/><rect width="13.67" height="9.97" x="630.94" y="958.05" fill="#e2d7de"/><rect width="13.67" height="9.97" x="630.94" y="969.06" fill="#e2d7de"/><rect width="13.67" height="9.97" x="630.94" y="980.06" fill="#e2d7de"/><rect width="13.67" height="9.97" x="630.94" y="991.07" fill="#e2d7de"/><rect width="13.67" height="9.97" x="630.94" y="1002.08" fill="#e2d7de"/><rect width="13.67" height="9.97" x="630.94" y="1013.09" fill="#e2d7de"/><rect width="13.67" height="9.97" x="630.94" y="1024.09" fill="#e2d7de"/></g><g><rect width="13.67" height="9.97" x="721.63" y="858.99" fill="#e2d7de"/><rect width="13.67" height="9.97" x="721.63" y="870" fill="#e2d7de"/><rect width="13.67" height="9.97" x="721.63" y="881" fill="#e2d7de"/><rect width="13.67" height="9.97" x="721.63" y="892.01" fill="#e2d7de"/><rect width="13.67" height="9.97" x="721.63" y="903.02" fill="#e2d7de"/><rect width="13.67" height="9.97" x="721.63" y="914.02" fill="#e2d7de"/><rect width="13.67" height="9.97" x="721.63" y="925.03" fill="#e2d7de"/><rect width="13.67" height="9.97" x="721.63" y="936.04" fill="#e2d7de"/><rect width="13.67" height="9.97" x="721.63" y="947.04" fill="#e2d7de"/><rect width="13.67" height="9.97" x="721.63" y="958.05" fill="#e2d7de"/><rect width="13.67" height="9.97" x="721.63" y="969.06" fill="#e2d7de"/><rect width="13.67" height="9.97" x="721.63" y="980.06" fill="#e2d7de"/><rect width="13.67" height="9.97" x="721.63" y="991.07" fill="#e2d7de"/><rect width="13.67" height="9.97" x="721.63" y="1002.08" fill="#e2d7de"/><rect width="13.67" height="9.97" x="721.63" y="1013.09" fill="#e2d7de"/><rect width="13.67" height="9.97" x="721.63" y="1024.09" fill="#e2d7de"/></g><polygon fill="#eaefee" points="728.46 948.74 637.77 948.74 637.77 854.14 683.4 825.11 728.46 854.14"/><g><rect width="44.81" height="58.69" x="660.01" y="890.67" fill="#d9e0df"/><rect width="41.2" height="57.05" x="661.82" y="892.32" fill="#e8f0f0"/><polygon fill="#f4f2eb" points="703.02 923.67 661.82 946.18 661.82 939.5 680.39 928.11 661.82 932.7 661.82 915.64 703.02 892.32 703.02 907.04 682.42 917.36 703.02 911.63"/></g><polygon fill="#e8f0f0" points="728.45 854.14 728.45 873.06 683.39 844.02 637.77 873.06 637.77 854.14 683.39 825.11" opacity=".5"/><polygon fill="#e8f0f0" points="787.27 863.86 748.74 863.86 683.39 826.1 618.03 863.86 579.53 863.86 664.15 814.99 683.39 803.88 702.65 814.99" opacity=".5"/><polygon fill="#e2d7de" points="696.22 824.81 683.4 817.4 670.57 824.81 609.12 860.31 615.53 871.42 683.4 832.22 751.26 871.42 757.67 860.31"/><rect width="114.14" height="4.67" x="625.35" y="946.41" fill="#d9e0df"/><g><rect width="3.1" height="23.78" x="626.82" y="925.14" fill="#d9e0df"/><polygon fill="#e8f0f0" points="629.92 937.84 626.82 928.76 626.82 925.14 629.92 925.14" opacity=".5"/><rect width="3.1" height="23.78" x="648.32" y="925.14" fill="#d9e0df"/><polygon fill="#e8f0f0" points="651.42 937.84 648.32 928.76 648.32 925.14 651.42 925.14" opacity=".5"/><rect width="3.1" height="23.78" x="669.82" y="925.14" fill="#d9e0df"/><polygon fill="#e8f0f0" points="672.92 937.84 669.82 928.76 669.82 925.14 672.92 925.14" opacity=".5"/><rect width="3.1" height="23.78" x="691.32" y="925.14" fill="#d9e0df"/><polygon fill="#e8f0f0" points="694.43 937.84 691.32 928.76 691.32 925.14 694.43 925.14" opacity=".5"/><g><rect width="3.1" height="23.78" x="712.83" y="925.14" fill="#d9e0df"/><polygon fill="#e8f0f0" points="715.93 937.84 712.83 928.76 712.83 925.14 715.93 925.14" opacity=".5"/></g><g><rect width="3.1" height="23.78" x="734.33" y="925.14" fill="#d9e0df"/><polygon fill="#e8f0f0" points="737.43 937.84 734.33 928.76 734.33 925.14 737.43 925.14" opacity=".5"/></g><rect width="116.96" height="2.74" x="623.94" y="923.77" fill="#d9e0df"/></g><g><rect width="10.43" height="4.17" x="676.85" y="875.62" fill="#d3c9cf" opacity=".31" transform="rotate(-180 682.071 877.706)"/><rect width="10.43" height="4.17" x="671.96" y="871.42" fill="#d3c9cf" opacity=".5" transform="rotate(-180 677.179 873.504)"/><rect width="10.43" height="4.17" x="682.44" y="871.45" fill="#d3c9cf" opacity=".35" transform="rotate(-180 687.661 873.533)"/></g><path fill="#d3c9cf" d="M830.62,1034.06H536.18c-5.5,0-9.96-0.52-9.96,4.98h314.37C840.58,1033.54,836.12,1034.06,830.62,1034.06z"/></g></svg>