<svg
          width="232"
          height="78"
          viewBox="0 0 232 78"
          fill="none"
          xmlns="http://www.w3.org/2000/svg"
        >
          <path
            d="M7.22852 8.79736V21.4097H13.5347C14.3989 21.4097 15.2119 21.2485 15.9736 20.9263C16.7354 20.5894 17.4019 20.1353 17.9731 19.564C18.5444 18.9927 18.9912 18.3262 19.3135 17.5645C19.6504 16.7881 19.8188 15.9678 19.8188 15.1035C19.8188 14.2393 19.6504 13.4263 19.3135 12.6646C18.9912 11.8882 18.5444 11.2144 17.9731 10.6431C17.4019 10.0718 16.7354 9.625 15.9736 9.30273C15.2119 8.96582 14.3989 8.79736 13.5347 8.79736H7.22852ZM7.22852 34H0.922363V2.49121H13.5347C14.6919 2.49121 15.8052 2.64502 16.8745 2.95264C17.9438 3.24561 18.9399 3.67041 19.8628 4.22705C20.8003 4.76904 21.6499 5.42822 22.4116 6.20459C23.188 6.96631 23.8472 7.81592 24.3892 8.75342C24.9458 9.69092 25.3706 10.6943 25.6636 11.7637C25.9712 12.833 26.125 13.9463 26.125 15.1035C26.125 16.832 25.7954 18.4653 25.1362 20.0034C24.4771 21.5269 23.5762 22.8599 22.4336 24.0024C21.291 25.145 19.9507 26.0459 18.4126 26.7051C16.8892 27.3643 15.2632 27.6938 13.5347 27.6938H7.22852V34ZM35.1997 34H29.2012V10.4673H30.6514L32.6289 13.2578C33.5957 12.3789 34.6943 11.7051 35.9248 11.2363C37.1553 10.7529 38.4297 10.5112 39.748 10.5112H45.0435V16.4878H39.748C39.1182 16.4878 38.5249 16.605 37.9683 16.8394C37.4116 17.0737 36.9282 17.396 36.5181 17.8062C36.1079 18.2163 35.7856 18.6997 35.5513 19.2563C35.3169 19.813 35.1997 20.4062 35.1997 21.0361V34ZM70.1362 22.0249C70.1362 23.7827 69.8213 25.4233 69.1914 26.9468C68.5615 28.4556 67.7046 29.7666 66.6206 30.8799C65.5366 31.9785 64.2622 32.8501 62.7974 33.4946C61.3472 34.1245 59.7871 34.4395 58.1172 34.4395C56.4619 34.4395 54.9019 34.1245 53.437 33.4946C51.9868 32.8501 50.7124 31.9785 49.6138 30.8799C48.5298 29.7666 47.6729 28.4556 47.043 26.9468C46.4131 25.4233 46.0981 23.7827 46.0981 22.0249C46.0981 20.2378 46.4131 18.5825 47.043 17.0591C47.6729 15.5356 48.5298 14.2246 49.6138 13.126C50.7124 12.0127 51.9868 11.1411 53.437 10.5112C54.9019 9.88135 56.4619 9.56641 58.1172 9.56641C59.7871 9.56641 61.3472 9.8667 62.7974 10.4673C64.2622 11.0532 65.5366 11.8955 66.6206 12.9941C67.7046 14.0781 68.5615 15.3892 69.1914 16.9272C69.8213 18.4507 70.1362 20.1499 70.1362 22.0249ZM64.0938 22.0249C64.0938 21.0581 63.9326 20.1865 63.6104 19.4102C63.3027 18.6191 62.8779 17.9453 62.3359 17.3887C61.7939 16.8174 61.1567 16.3853 60.4243 16.0923C59.7065 15.7847 58.9375 15.6309 58.1172 15.6309C57.2969 15.6309 56.5205 15.7847 55.7881 16.0923C55.0703 16.3853 54.4404 16.8174 53.8984 17.3887C53.3711 17.9453 52.9536 18.6191 52.646 19.4102C52.3384 20.1865 52.1846 21.0581 52.1846 22.0249C52.1846 22.9331 52.3384 23.7754 52.646 24.5518C52.9536 25.3281 53.3711 26.002 53.8984 26.5732C54.4404 27.1445 55.0703 27.5986 55.7881 27.9355C56.5205 28.2578 57.2969 28.4189 58.1172 28.4189C58.9375 28.4189 59.7065 28.2651 60.4243 27.9575C61.1567 27.6499 61.7939 27.2178 62.3359 26.6611C62.8779 26.1045 63.3027 25.4307 63.6104 24.6396C63.9326 23.8486 64.0938 22.9771 64.0938 22.0249ZM80.6172 4.07324C80.6172 4.62988 80.5073 5.1499 80.2876 5.6333C80.0825 6.1167 79.7969 6.5415 79.4307 6.90771C79.0791 7.25928 78.6543 7.54492 78.1562 7.76465C77.6729 7.96973 77.1602 8.07227 76.6182 8.07227C76.0469 8.07227 75.5122 7.96973 75.0142 7.76465C74.5308 7.54492 74.106 7.25928 73.7397 6.90771C73.3735 6.5415 73.0806 6.1167 72.8608 5.6333C72.6558 5.1499 72.5532 4.62988 72.5532 4.07324C72.5532 3.53125 72.6558 3.01855 72.8608 2.53516C73.0806 2.03711 73.3735 1.6123 73.7397 1.26074C74.106 0.894531 74.5308 0.608887 75.0142 0.403809C75.5122 0.184082 76.0469 0.0742188 76.6182 0.0742188C77.1602 0.0742188 77.6729 0.184082 78.1562 0.403809C78.6543 0.608887 79.0791 0.894531 79.4307 1.26074C79.7969 1.6123 80.0825 2.03711 80.2876 2.53516C80.5073 3.01855 80.6172 3.53125 80.6172 4.07324ZM64.5112 42.9648V36.9224L67.8291 36.9663C68.6348 36.9663 69.3818 36.7979 70.0703 36.4609C70.7588 36.1387 71.3521 35.6992 71.8501 35.1426C72.3628 34.6006 72.7656 33.9707 73.0586 33.2529C73.3516 32.5352 73.498 31.7808 73.498 30.9897V10.4673H79.6284V30.9897H79.5845C79.5698 32.0884 79.416 33.1504 79.123 34.1758C78.8447 35.2012 78.4419 36.1533 77.9146 37.0322C77.3872 37.9258 76.7573 38.7314 76.0249 39.4492C75.2925 40.1816 74.4795 40.8042 73.5859 41.3169C72.707 41.8442 71.7622 42.2471 70.7515 42.5254C69.7261 42.8184 68.6641 42.9648 67.5654 42.9648H64.5112ZM93.5371 28.2432C93.7715 28.3164 94.0059 28.3677 94.2402 28.397C94.4746 28.4116 94.709 28.4189 94.9434 28.4189C95.5293 28.4189 96.0933 28.3384 96.6353 28.1772C97.1772 28.0161 97.6826 27.7891 98.1514 27.4961C98.6348 27.1885 99.0596 26.8223 99.4258 26.3975C99.8066 25.958 100.114 25.4746 100.349 24.9473L104.743 29.3638C104.187 30.1548 103.542 30.8652 102.81 31.4951C102.092 32.125 101.308 32.6597 100.458 33.0991C99.6235 33.5386 98.7373 33.8682 97.7998 34.0879C96.877 34.3223 95.9248 34.4395 94.9434 34.4395C93.2881 34.4395 91.728 34.1318 90.2632 33.5166C88.813 32.9014 87.5386 32.0444 86.4399 30.9458C85.356 29.8472 84.499 28.5435 83.8691 27.0347C83.2393 25.5112 82.9243 23.8413 82.9243 22.0249C82.9243 20.1646 83.2393 18.4653 83.8691 16.9272C84.499 15.3892 85.356 14.0781 86.4399 12.9941C87.5386 11.9102 88.813 11.0679 90.2632 10.4673C91.728 9.8667 93.2881 9.56641 94.9434 9.56641C95.9248 9.56641 96.8843 9.68359 97.8218 9.91797C98.7593 10.1523 99.6455 10.4893 100.48 10.9287C101.33 11.3682 102.121 11.9102 102.854 12.5547C103.586 13.1846 104.23 13.895 104.787 14.686L93.5371 28.2432ZM96.6133 15.8726C96.335 15.77 96.0566 15.7041 95.7783 15.6748C95.5146 15.6455 95.2363 15.6309 94.9434 15.6309C94.123 15.6309 93.3467 15.7847 92.6143 16.0923C91.8965 16.3853 91.2666 16.8101 90.7246 17.3667C90.1973 17.9233 89.7798 18.5972 89.4722 19.3882C89.1646 20.1646 89.0107 21.0435 89.0107 22.0249C89.0107 22.2446 89.0181 22.4937 89.0327 22.772C89.062 23.0503 89.0986 23.3359 89.1426 23.6289C89.2012 23.9072 89.2671 24.1782 89.3403 24.4419C89.4136 24.7056 89.5088 24.9399 89.626 25.145L96.6133 15.8726ZM128.21 15.1475L123.815 19.564C123.596 18.9487 123.295 18.3994 122.915 17.916C122.534 17.418 122.102 17.0005 121.618 16.6636C121.149 16.3267 120.637 16.0703 120.08 15.8945C119.523 15.7188 118.952 15.6309 118.366 15.6309C117.546 15.6309 116.77 15.7993 116.037 16.1362C115.319 16.4731 114.689 16.9492 114.147 17.5645C113.62 18.165 113.203 18.8828 112.895 19.7178C112.587 20.5527 112.434 21.4756 112.434 22.4863C112.434 23.3066 112.587 24.0757 112.895 24.7935C113.203 25.5112 113.62 26.1411 114.147 26.6831C114.689 27.2251 115.319 27.6499 116.037 27.9575C116.77 28.2651 117.546 28.4189 118.366 28.4189C118.952 28.4189 119.516 28.3384 120.058 28.1772C120.6 28.0161 121.105 27.7891 121.574 27.4961C122.058 27.1885 122.482 26.8223 122.849 26.3975C123.229 25.958 123.537 25.4746 123.771 24.9473L128.166 29.3638C127.609 30.1548 126.965 30.8652 126.232 31.4951C125.515 32.125 124.731 32.6597 123.881 33.0991C123.046 33.5386 122.16 33.8682 121.223 34.0879C120.3 34.3223 119.348 34.4395 118.366 34.4395C116.711 34.4395 115.151 34.1318 113.686 33.5166C112.236 32.8867 110.961 32.0298 109.863 30.9458C108.779 29.8618 107.922 28.5947 107.292 27.1445C106.662 25.6943 106.347 24.1416 106.347 22.4863C106.347 20.6846 106.662 19 107.292 17.4326C107.922 15.8652 108.779 14.5029 109.863 13.3457C110.961 12.1738 112.236 11.251 113.686 10.5771C115.151 9.90332 116.711 9.56641 118.366 9.56641C119.348 9.56641 120.307 9.69092 121.245 9.93994C122.197 10.189 123.098 10.5552 123.947 11.0386C124.812 11.5073 125.603 12.0859 126.32 12.7744C127.053 13.4629 127.683 14.2539 128.21 15.1475ZM142.954 34C141.503 34 140.141 33.729 138.867 33.187C137.592 32.6304 136.472 31.876 135.505 30.9238C134.553 29.957 133.798 28.8364 133.242 27.562C132.7 26.2876 132.429 24.9253 132.429 23.4751V16.4878H129.506V10.5112H132.429V1.10693H138.405V10.5112H147.502V16.4878H138.405V23.4751C138.405 24.105 138.522 24.6982 138.757 25.2549C138.991 25.7969 139.313 26.2729 139.724 26.6831C140.134 27.0933 140.617 27.4229 141.174 27.6719C141.73 27.9062 142.324 28.0234 142.954 28.0234H147.502V34H142.954ZM82.9023 76H76.5962V44.4912H82.9023V60.2456L94.6357 44.4912H101.799L91.8452 57.7847L101.799 76H94.6357L87.7144 63.2559L82.9023 69.6938V76ZM125.375 76H123.925L121.596 72.77C121.025 73.2827 120.417 73.7661 119.772 74.2202C119.143 74.6597 118.476 75.0479 117.773 75.3848C117.07 75.707 116.345 75.9634 115.598 76.1538C114.865 76.3442 114.118 76.4395 113.356 76.4395C111.701 76.4395 110.141 76.1611 108.676 75.6045C107.226 75.0479 105.952 74.2422 104.853 73.1875C103.769 72.1182 102.912 70.8145 102.282 69.2764C101.652 67.7383 101.337 65.9878 101.337 64.0249C101.337 62.1938 101.652 60.5166 102.282 58.9932C102.912 57.4551 103.769 56.1367 104.853 55.0381C105.952 53.9395 107.226 53.0898 108.676 52.4893C110.141 51.874 111.701 51.5664 113.356 51.5664C114.118 51.5664 114.873 51.6616 115.62 51.8521C116.367 52.0425 117.092 52.3062 117.795 52.6431C118.498 52.98 119.165 53.3755 119.794 53.8296C120.439 54.2837 121.04 54.7744 121.596 55.3018L123.925 52.5112H125.375V76ZM119.333 64.0249C119.333 63.2046 119.172 62.4136 118.85 61.6519C118.542 60.8755 118.117 60.1943 117.575 59.6084C117.033 59.0078 116.396 58.5317 115.664 58.1802C114.946 57.814 114.177 57.6309 113.356 57.6309C112.536 57.6309 111.76 57.77 111.027 58.0483C110.31 58.3267 109.68 58.7368 109.138 59.2788C108.61 59.8208 108.193 60.4946 107.885 61.3003C107.578 62.0913 107.424 62.9995 107.424 64.0249C107.424 65.0503 107.578 65.9658 107.885 66.7715C108.193 67.5625 108.61 68.229 109.138 68.771C109.68 69.313 110.31 69.7231 111.027 70.0015C111.76 70.2798 112.536 70.4189 113.356 70.4189C114.177 70.4189 114.946 70.2432 115.664 69.8916C116.396 69.5254 117.033 69.0493 117.575 68.4634C118.117 67.8628 118.542 67.1816 118.85 66.4199C119.172 65.6436 119.333 64.8452 119.333 64.0249ZM142.888 76H129.177V70.0234H142.888C143.298 70.0234 143.649 69.877 143.942 69.584C144.235 69.291 144.382 68.9395 144.382 68.5293C144.382 68.1045 144.235 67.8262 143.942 67.6943C143.649 67.5625 143.298 67.4966 142.888 67.4966H136.647C135.607 67.4966 134.633 67.2988 133.725 66.9033C132.817 66.5078 132.026 65.9731 131.352 65.2993C130.678 64.6108 130.144 63.8125 129.748 62.9043C129.367 61.9961 129.177 61.022 129.177 59.9819C129.177 58.9419 129.367 57.9678 129.748 57.0596C130.144 56.1514 130.678 55.3604 131.352 54.6865C132.026 54.0127 132.817 53.4854 133.725 53.1045C134.633 52.709 135.607 52.5112 136.647 52.5112H148.798V58.4878H136.647C136.237 58.4878 135.886 58.6343 135.593 58.9272C135.3 59.2202 135.153 59.5718 135.153 59.9819C135.153 60.4067 135.3 60.7729 135.593 61.0806C135.886 61.3735 136.237 61.52 136.647 61.52H142.888C143.913 61.52 144.88 61.6958 145.788 62.0474C146.696 62.3843 147.487 62.8604 148.161 63.4756C148.835 64.0908 149.37 64.8306 149.765 65.6948C150.161 66.5591 150.358 67.5039 150.358 68.5293C150.358 69.5693 150.161 70.5435 149.765 71.4517C149.37 72.3452 148.835 73.1362 148.161 73.8247C147.487 74.4985 146.696 75.0332 145.788 75.4287C144.88 75.8096 143.913 76 142.888 76ZM170.859 73.2534C170.375 73.6929 169.855 74.1104 169.299 74.5059C168.757 74.8867 168.186 75.2236 167.585 75.5166C166.984 75.7949 166.362 76.0146 165.717 76.1758C165.087 76.3516 164.443 76.4395 163.784 76.4395C162.333 76.4395 160.971 76.1831 159.697 75.6704C158.422 75.1577 157.302 74.4326 156.335 73.4951C155.383 72.543 154.628 71.3931 154.072 70.0454C153.53 68.6831 153.259 67.1597 153.259 65.4751V52.4673H159.235V65.4751C159.235 66.2661 159.353 66.9766 159.587 67.6064C159.836 68.2217 160.166 68.7417 160.576 69.1665C160.986 69.5913 161.462 69.9136 162.004 70.1333C162.561 70.353 163.154 70.4629 163.784 70.4629C164.399 70.4629 164.978 70.3237 165.52 70.0454C166.076 69.7524 166.56 69.3716 166.97 68.9028C167.38 68.4341 167.702 67.9067 167.937 67.3208C168.171 66.7202 168.288 66.105 168.288 65.4751V52.4673H174.287V76H172.836L170.859 73.2534ZM208.806 76H202.829V61.0586C202.829 60.6484 202.749 60.2603 202.587 59.894C202.441 59.5278 202.229 59.2056 201.95 58.9272C201.672 58.6489 201.35 58.4365 200.983 58.29C200.617 58.1289 200.229 58.0483 199.819 58.0483C199.409 58.0483 199.021 58.1289 198.654 58.29C198.303 58.4365 197.988 58.6489 197.709 58.9272C197.446 59.2056 197.233 59.5278 197.072 59.894C196.926 60.2603 196.853 60.6484 196.853 61.0586V76H190.854V61.0586C190.854 60.6484 190.773 60.2603 190.612 59.894C190.466 59.5278 190.253 59.2056 189.975 58.9272C189.697 58.6489 189.375 58.4365 189.008 58.29C188.642 58.1289 188.254 58.0483 187.844 58.0483C187.434 58.0483 187.045 58.1289 186.679 58.29C186.328 58.4365 186.013 58.6489 185.734 58.9272C185.471 59.2056 185.258 59.5278 185.097 59.894C184.951 60.2603 184.877 60.6484 184.877 61.0586V76H178.879V52.4673H180.329L181.955 54.269C182.79 53.5659 183.706 53.0239 184.702 52.6431C185.712 52.2476 186.76 52.0498 187.844 52.0498C188.942 52.0498 190.012 52.2549 191.052 52.665C192.106 53.0752 193.029 53.7856 193.82 54.7964C194.187 54.2983 194.604 53.8735 195.073 53.522C195.542 53.1704 196.032 52.8848 196.545 52.665C197.072 52.4453 197.614 52.2915 198.171 52.2036C198.728 52.1011 199.277 52.0498 199.819 52.0498C201.064 52.0498 202.229 52.2842 203.312 52.7529C204.411 53.2217 205.363 53.8662 206.169 54.6865C206.989 55.4922 207.634 56.4443 208.103 57.543C208.571 58.6416 208.806 59.8135 208.806 61.0586V76ZM220.275 46.0732C220.275 46.6299 220.166 47.1499 219.946 47.6333C219.741 48.1167 219.455 48.5415 219.089 48.9077C218.723 49.2593 218.291 49.5449 217.792 49.7646C217.309 49.9697 216.789 50.0723 216.232 50.0723C215.676 50.0723 215.148 49.9697 214.65 49.7646C214.167 49.5449 213.742 49.2593 213.376 48.9077C213.024 48.5415 212.739 48.1167 212.519 47.6333C212.314 47.1499 212.211 46.6299 212.211 46.0732C212.211 45.5312 212.314 45.0186 212.519 44.5352C212.739 44.0371 213.024 43.6123 213.376 43.2607C213.742 42.8945 214.167 42.6089 214.65 42.4038C215.148 42.1841 215.676 42.0742 216.232 42.0742C216.789 42.0742 217.309 42.1841 217.792 42.4038C218.291 42.6089 218.723 42.8945 219.089 43.2607C219.455 43.6123 219.741 44.0371 219.946 44.5352C220.166 45.0186 220.275 45.5312 220.275 46.0732ZM219.243 76H213.2V52.4673H219.243V76ZM231.218 73.7588C231.218 74.2861 231.123 74.7842 230.932 75.2529C230.742 75.707 230.478 76.1025 230.141 76.4395C229.804 76.7764 229.409 77.04 228.955 77.2305C228.5 77.4355 228.01 77.5381 227.482 77.5381C226.97 77.5381 226.479 77.4355 226.01 77.2305C225.556 77.04 225.153 76.7764 224.802 76.4395C224.465 76.1025 224.194 75.707 223.989 75.2529C223.798 74.7842 223.703 74.2861 223.703 73.7588C223.703 73.2461 223.798 72.7627 223.989 72.3086C224.194 71.8545 224.465 71.459 224.802 71.1221C225.153 70.7852 225.556 70.5215 226.01 70.3311C226.479 70.126 226.97 70.0234 227.482 70.0234C228.01 70.0234 228.5 70.126 228.955 70.3311C229.409 70.5215 229.804 70.7852 230.141 71.1221C230.478 71.459 230.742 71.8545 230.932 72.3086C231.123 72.7627 231.218 73.2461 231.218 73.7588Z"
            fill="#ffffff"
          />
        </svg>