<svg width="123" height="38" viewBox="0 0 123 38" fill="none" xmlns="http://www.w3.org/2000/svg">
<path d="M18.86 0.584997H14.63C14.81 1.665 14.945 3.33 14.945 4.32C14.945 5.94 14.855 7.47 14.765 8.91H6.845C5.135 8.91 3.29 8.82 1.715 8.64V12.465C3.29 12.285 5.135 12.285 6.89 12.285H14.45C13.235 21.555 9.995 27.18 5.54 31.23C4.19 32.535 2.345 33.795 0.905 34.56L4.19 37.215C11.705 32.04 16.385 25.2 18.005 12.285H30.605C30.605 17.1 30.02 28.17 28.31 31.59C27.815 32.715 27.005 33.075 25.7 33.075C23.81 33.075 21.425 32.895 18.995 32.58L19.445 36.315C21.785 36.45 24.395 36.63 26.69 36.63C29.165 36.63 30.605 35.775 31.505 33.885C33.53 29.565 34.07 16.47 34.25 12.15C34.25 11.565 34.34 10.71 34.475 9.945L31.955 8.685C31.19 8.82 30.29 8.91 29.075 8.91H18.365C18.455 7.425 18.545 5.895 18.59 4.275C18.635 3.195 18.725 1.62 18.86 0.584997ZM77 5.895L74.705 4.14C73.985 4.365 72.815 4.5 71.33 4.5H53.96C52.61 4.5 50.045 4.32 49.415 4.23V8.325C49.91 8.28 52.385 8.1 53.96 8.1H71.51C70.385 11.835 67.1 17.145 64.04 20.61C59.405 25.785 52.745 31.14 45.5 33.975L48.38 36.99C55.04 33.975 61.115 29.025 65.93 23.85C70.52 27.945 75.29 33.255 78.305 37.215L81.455 34.515C78.53 30.96 73.04 25.11 68.315 21.06C71.51 17.01 74.345 11.745 75.875 7.875C76.145 7.245 76.73 6.255 77 5.895ZM98.915 1.935L97.61 5.265C103.82 6.075 115.61 8.64 121.1 10.62L122.54 7.155C116.87 5.175 104.765 2.655 98.915 1.935ZM96.89 13.815L95.54 17.19C101.93 18.135 112.91 20.61 118.13 22.68L119.57 19.215C113.945 17.145 103.055 14.85 96.89 13.815ZM94.415 26.91L93.02 30.33C100.31 31.5 113.675 34.515 119.66 37.125L121.19 33.66C115.025 31.185 101.975 28.08 94.415 26.91Z" fill="#424242"/>
</svg>
